<svg width="27" height="27" viewBox="0 0 27 27" fill="none" xmlns="http://www.w3.org/2000/svg">
<path fill-rule="evenodd" clip-rule="evenodd" d="M11.5021 13.0805C11.3695 13.3229 8.82215 15.8073 8.27232 16.3532C7.81895 16.8035 7.75492 17.4555 8.23107 17.9292C9.18685 18.88 10.0967 17.6002 10.8632 16.8338C11.1971 16.4999 12.8517 14.7874 13.0798 14.659C13.3648 14.8129 14.9084 16.4441 15.2715 16.8072C16.0464 17.5821 16.9844 18.8872 17.9287 17.9292C18.3716 17.4797 18.3617 16.8355 17.9143 16.3782L15.753 14.2161C15.4927 13.9558 14.8068 13.3452 14.6593 13.0807C14.7949 12.8365 17.4521 10.2515 17.8884 9.80883C18.978 8.70384 17.4074 7.22265 16.3781 8.24719C16.004 8.61969 15.67 8.95566 15.2973 9.32837C14.9306 9.69513 13.3667 11.3475 13.08 11.5024C12.8403 11.3668 10.2375 8.70178 9.8081 8.27243C8.71481 7.17976 7.21802 8.75186 8.24666 9.78256C8.6793 10.216 11.3716 12.8416 11.5023 13.0809L11.5021 13.0805Z" fill="#FAF9F9"/>
<path fill-rule="evenodd" clip-rule="evenodd" d="M9.90304 8.36623C10.3324 8.79559 12.9352 11.4606 13.1749 11.5962C13.4616 11.4415 15.0255 9.78913 15.3923 9.42217C15.765 9.04946 16.0989 8.71349 16.473 8.34099C17.5023 7.31645 19.073 8.79764 17.9834 9.90263C17.547 10.3451 14.8899 12.9303 14.7542 13.1745C14.9018 13.439 15.5877 14.0496 15.8479 14.3099L18.0092 16.472C18.4566 16.9291 18.4665 17.5735 18.0236 18.023C17.0795 18.9812 16.1416 17.6761 15.3664 16.901C15.0034 16.5379 13.46 14.9067 13.1747 14.7528C12.9467 14.8812 11.2921 16.5937 10.9582 16.9276C10.1916 17.6942 9.28179 18.9738 8.32601 18.023C7.84986 17.5493 7.91389 16.8973 8.36726 16.447C8.91708 15.9011 11.4643 13.4167 11.5971 13.1743C11.4661 12.935 8.77404 10.3094 8.3414 9.87595C7.31255 8.84525 8.80954 7.27315 9.90283 8.36582L9.90304 8.36623ZM12.7599 0H13.6687C14.6017 0.0316063 15.5325 0.160289 16.4386 0.390359C17.6119 0.688361 18.8193 1.18934 19.8239 1.79109C20.7838 2.36575 21.2965 2.7518 22.0903 3.48737C22.8064 4.15069 22.9729 4.31878 23.6292 5.13931C25.313 7.24482 26.2568 9.98123 26.3496 12.7597V13.6685C26.318 14.6015 26.1895 15.5322 25.9592 16.4382C25.661 17.6117 25.1603 18.8187 24.5585 19.8235C24.3492 20.1732 24.155 20.4741 23.9311 20.7914C23.8129 20.9589 23.7187 21.1003 23.5824 21.2661C23.4593 21.4157 23.3513 21.5354 23.2321 21.6879C22.4103 22.7395 20.9476 23.8987 19.7917 24.5776C19.4549 24.7754 19.1122 24.9731 18.7475 25.1289C17.9614 25.4644 17.3065 25.7415 16.3969 25.9689C14.9295 26.3357 14.2339 26.3488 12.7813 26.3492H12.7115C10.8984 26.3492 8.78327 25.7152 7.56438 25.1149C6.21885 24.4522 5.75645 24.0877 4.66132 23.2319C4.18948 22.8631 3.82949 22.4444 3.46212 22.0639L2.90327 21.4389C2.83308 21.3494 2.7871 21.2793 2.7282 21.2023C2.6576 21.1101 2.61881 21.0763 2.54328 20.9757C2.14451 20.4437 1.4779 19.3505 1.22033 18.7475C0.233353 16.4359 0 15.2747 0 12.7115C0 10.8984 0.633973 8.78327 1.23429 7.56438C1.5953 6.83148 1.9678 6.19648 2.41829 5.55779C2.53651 5.39031 2.63071 5.24891 2.76699 5.08308C3.57685 4.09794 4.13694 3.52205 5.1391 2.72061C7.24523 1.03644 9.98103 0.0927666 12.7593 0.000205236L12.7599 0Z" fill="#F44336"/>
</svg>
