<svg width="160" height="25" viewBox="0 0 160 25" fill="none" xmlns="http://www.w3.org/2000/svg">
<path fill-rule="evenodd" clip-rule="evenodd" d="M0 24.1001C3.37656 21.5584 7.29695 19.0199 11.8273 17.5278C17.7903 15.5635 24.8103 15.4124 30.9621 15.6769C37.1139 15.9413 42.3978 16.6212 48.361 15.0349C54.3242 13.4483 60.9666 9.59572 68.3639 7.25391C75.7613 4.9119 83.9134 4.08105 90.4427 5.62972C96.9719 7.17822 101.878 11.1065 110.446 12.9951C119.013 14.8836 131.241 14.7327 140.375 14.7706C148.696 14.8048 154.448 14.9962 160 15.9439V24.1002H2.80742e-05L0 24.1001ZM86.3857 8.79038C86.3604 8.86523 86.321 8.93342 86.2931 9.01344C86.2681 9.08523 86.2546 9.1791 86.2162 9.23973C86.2254 9.29542 86.195 9.42388 86.1857 9.49173C86.1799 9.53371 86.1719 9.56608 86.1683 9.61592C86.1635 9.68358 86.1751 9.68375 86.1546 9.748C86.1595 9.7636 86.1654 9.7874 86.1661 9.81892C86.1667 9.87081 86.1738 9.84016 86.1563 9.88076L86.1992 10.3657C86.2249 10.4005 86.2196 10.4165 86.2294 10.4692L86.2403 10.5441C86.2405 10.5456 86.242 10.5538 86.2398 10.553C86.2376 10.5521 86.2391 10.559 86.2386 10.5619C86.2703 10.6338 86.297 10.7632 86.3204 10.848C86.3986 11.1329 86.5674 11.4791 86.7864 11.6936C87.2603 12.1578 87.9438 12.2791 88.5265 12.1018C88.6925 12.0513 88.9219 11.9202 89.0856 11.7818C89.4758 11.4515 89.6592 10.9934 89.7138 10.6056C89.7703 10.2033 89.6908 9.83707 89.5068 9.46771C89.2054 8.86281 88.6978 8.27573 88.0181 8.0645C87.7908 7.99358 87.6383 8.00111 87.4435 8.01533C87.2715 8.02767 87.0592 8.10954 86.879 8.22502C86.6282 8.38604 86.5397 8.55274 86.3856 8.79035L86.3857 8.79038ZM81.7298 9.31683C81.7313 9.32197 81.7338 9.32197 81.7346 9.34442C81.7347 9.34835 81.7346 9.36052 81.734 9.36412C81.7279 9.42115 81.7366 9.37302 81.7228 9.40196C81.738 9.4465 81.7294 9.40848 81.7334 9.45422C81.7351 9.47634 81.7327 9.48985 81.7325 9.51126C81.7319 9.56352 81.738 9.56762 81.7247 9.618C81.7344 9.63719 81.7337 9.60687 81.7375 9.65705C81.7408 9.6997 81.7392 9.67641 81.7314 9.69628L81.7702 9.97826L81.7902 10.0449C81.8737 10.3245 81.9044 10.4793 82.034 10.7574C82.0406 10.7721 82.0554 10.8036 82.0584 10.8125L82.0713 10.8764C82.1038 10.9026 82.125 10.9367 82.1351 10.9871C82.2414 11.138 82.3186 11.3039 82.4386 11.4604C82.568 11.6297 82.7185 11.7861 82.8927 11.9257C83.0004 11.9989 83.081 12.0566 83.1924 12.1135C83.272 12.1539 83.4603 12.2163 83.4987 12.2495C83.5293 12.2452 83.5042 12.2425 83.5495 12.2492C83.5767 12.2533 83.5843 12.2574 83.6113 12.2679L83.8037 12.3126L83.8434 12.3079C84.0442 12.3009 84.2288 12.3621 84.5382 12.2401C85.0906 12.0225 85.4804 11.5083 85.6387 10.9565C85.6705 10.8451 85.7002 10.6964 85.6997 10.5938L85.7012 10.2164C85.675 10.1808 85.688 10.2149 85.6795 10.1558C85.6749 10.1246 85.673 10.1212 85.6809 10.0994C85.61 9.92673 85.6276 9.81999 85.4583 9.46813C85.1186 8.76096 83.9888 7.80949 83.0503 7.8794C82.8231 7.8962 82.6686 7.92806 82.4186 8.06973C82.0951 8.25337 81.8616 8.62666 81.7887 8.97956L81.7298 9.31686L81.7298 9.31683ZM80.2044 14.8922C80.2332 14.897 80.3699 14.9596 80.4193 14.9749C80.4874 14.996 80.5937 15.0157 80.6416 15.0453L80.9988 15.0842C81.2149 15.1017 81.3159 15.1072 81.516 15.0719C81.5904 15.0587 81.6238 15.0582 81.6942 15.0376C81.8753 14.9847 81.9415 14.9357 82.0031 14.9156C82.0504 14.9002 82.0182 14.9081 82.0514 14.9059C82.0827 14.8618 82.1347 14.8278 82.1823 14.7947L82.3567 14.6265L82.5004 14.4461C82.6371 14.1484 82.7686 14.0053 82.7862 13.5623C82.8054 13.0739 82.6479 12.795 82.6436 12.683C82.5996 12.6463 82.5491 12.4974 82.5091 12.427C82.4766 12.3696 82.3562 12.2026 82.3442 12.169C82.0014 11.8045 81.9105 11.6741 81.3978 11.4459C80.9666 11.2541 80.8672 11.2442 80.4382 11.1508L79.9661 11.1246C79.9168 11.1244 79.9439 11.1314 79.903 11.1157C79.8159 11.1477 79.7251 11.1438 79.6197 11.1616C78.8157 11.2973 78.3297 12.0145 78.4802 12.8207C78.6073 13.5034 79.018 14.0533 79.5906 14.5097C79.8109 14.6853 79.9819 14.7632 80.2044 14.8922L80.2044 14.8922ZM81.9898 18.7941L81.9992 18.7794C82.0877 18.7046 82.1711 18.6578 82.2703 18.5653C82.3787 18.4645 82.4221 18.389 82.5081 18.2733C82.5163 18.2476 82.5442 18.186 82.5849 18.145C82.5815 18.0298 82.7582 17.7947 82.6558 17.2614C82.5565 16.7434 82.3314 16.5758 82.2503 16.4235C82.2368 16.3977 82.2378 16.4001 82.2337 16.3824C82.1846 16.3632 82.1805 16.3484 82.1375 16.3072L81.9263 16.1219L81.7952 16.0148C81.7471 16.0138 81.6127 15.9231 81.5516 15.8932C81.3455 15.7917 81.0401 15.7061 80.8217 15.6631C80.2113 15.5433 79.41 15.537 78.9294 16.0127C78.6612 16.2783 78.5497 16.6549 78.6096 16.9921C78.7842 17.9718 80.0246 18.9026 81.029 19.0161C81.161 19.031 81.3642 19.0113 81.5104 18.9743C81.707 18.9247 81.9234 18.7994 81.9898 18.7941H81.9898ZM83.232 13.8652C83.2296 13.9109 83.1904 14.0022 83.1565 14.0351C83.1568 14.0396 83.1536 14.0432 83.1567 14.0483C83.1681 14.0673 83.0931 14.2684 83.0827 14.3034C83.0558 14.3957 83.0368 14.505 83.0031 14.5894L83.0002 14.5831C83.0081 14.6318 82.9908 14.6801 82.9791 14.7362C82.9678 14.7912 82.9644 14.8368 82.9555 14.8949C82.9078 15.2041 82.878 15.5305 82.8804 15.8325L82.915 16.4502C82.9292 16.5573 82.9305 16.6501 82.9485 16.7637C82.9622 16.8507 82.9951 17.0094 82.9843 17.0827C83.0153 17.1233 82.9961 17.0877 83.0089 17.1437L83.0877 17.5593C83.1445 17.6878 83.1846 17.8906 83.2318 18.0457C83.378 18.5253 83.5947 19.0718 83.8867 19.5035C84.1216 19.8508 84.3999 20.1696 84.7513 20.436C84.9156 20.5607 85.0817 20.665 85.2568 20.7448C85.4824 20.8476 85.6816 20.8745 85.7736 20.9136L85.765 20.9127L85.7907 20.9086C85.8088 20.9078 85.8008 20.9066 85.8273 20.9088C85.8583 20.911 85.8667 20.9163 85.8953 20.9191C85.9655 20.9254 85.9687 20.915 86.0392 20.9364C86.0695 20.9179 86.0143 20.9247 86.0868 20.9218C86.1627 20.9187 86.1015 20.9155 86.1349 20.933L86.4045 20.8948L86.417 20.8824C86.6384 20.7949 86.5971 20.8331 86.8424 20.7114L86.9143 20.6857C86.9449 20.6474 87.0401 20.584 87.086 20.5616C87.6544 20.0464 87.6962 19.9272 87.993 19.2288C88.1888 18.7676 88.2434 18.2862 88.728 17.8982C89.4668 17.3063 90.3129 17.2929 90.8496 16.2413C90.9117 16.1196 90.9528 15.9894 91.0125 15.8832C91.0088 15.8478 91.0216 15.8345 91.0435 15.8114C91.0355 15.7467 91.1413 15.413 91.0969 15.0924C91.0659 14.8677 91.0468 14.6477 90.9278 14.3907C90.6601 13.8121 90.2835 13.4646 89.7154 13.1455L89.7022 13.1253L89.2044 12.9148C88.7941 12.7476 88.3825 12.6737 87.9633 12.5881C87.8859 12.5723 87.7851 12.5653 87.707 12.5339C87.6872 12.5386 87.3239 12.5033 87.2774 12.4779C87.2539 12.4822 87.2652 12.481 87.2401 12.4815L86.5727 12.4291C85.9271 12.3984 85.4956 12.3307 84.8224 12.5197C84.762 12.5365 84.7048 12.5548 84.6447 12.5767C84.5881 12.5975 84.5157 12.6329 84.4604 12.6293C84.4357 12.6593 84.4373 12.6627 84.3833 12.6787L84.3647 12.6816C84.3041 12.7265 84.276 12.7299 84.215 12.7654C84.1628 12.7957 84.1183 12.8375 84.0697 12.8387L83.9704 12.9175C83.8001 13.0708 83.6645 13.1712 83.5117 13.3741C83.383 13.5452 83.328 13.6968 83.232 13.8652L83.232 13.8652Z" fill="#C2C2C3"/>
<path fill-rule="evenodd" clip-rule="evenodd" d="M44.1579 0.91465C44.1326 0.9895 44.0931 1.05769 44.0653 1.13771C44.0402 1.20967 44.0266 1.30337 43.9881 1.36383C43.9977 1.41969 43.9672 1.54834 43.9578 1.616C43.952 1.65798 43.944 1.69035 43.9404 1.74039C43.9356 1.80787 43.9472 1.80804 43.9267 1.8723C43.9318 1.88789 43.9374 1.91169 43.9379 1.94322C43.9388 1.99531 43.946 1.96446 43.9282 2.00506L43.9715 2.49004C43.997 2.52482 43.9919 2.54075 44.0015 2.59352L44.0126 2.6682C44.0126 2.66991 44.0141 2.67831 44.0117 2.67727C44.0097 2.67643 44.0114 2.68326 44.0107 2.68618C44.0424 2.75813 44.0691 2.88746 44.0923 2.97209C44.1707 3.25716 44.3395 3.60337 44.5584 3.81786C45.0324 4.2821 45.7159 4.4034 46.2986 4.22611C46.4648 4.17556 46.694 4.04452 46.8576 3.90592C47.2479 3.57581 47.4311 3.11772 47.4858 2.72987C47.5425 2.3278 47.4629 1.96137 47.2789 1.59201C46.9775 0.987111 46.4698 0.400029 45.7904 0.188798C45.5629 0.11805 45.4104 0.125412 45.2156 0.13946C45.0434 0.151963 44.8313 0.233865 44.651 0.349483C44.4003 0.510337 44.3118 0.677035 44.1579 0.91465H44.1579ZM39.5018 1.44127C39.5034 1.44607 39.5059 1.44624 39.5066 1.46869C39.5068 1.47245 39.5065 1.48462 39.5061 1.48839C39.5 1.54559 39.5089 1.49729 39.495 1.52623C39.5101 1.57077 39.5015 1.53275 39.5053 1.57849C39.5072 1.6006 39.5048 1.61412 39.5046 1.63553C39.5039 1.68779 39.5101 1.69189 39.4968 1.74244C39.5065 1.76146 39.5058 1.73114 39.5096 1.78132C39.5127 1.82414 39.5113 1.80051 39.5036 1.82038L39.5423 2.10236L39.5625 2.16917C39.6458 2.44893 39.6765 2.6036 39.806 2.88165C39.8129 2.89637 39.8274 2.92806 39.8304 2.9368L39.8434 3.00069C39.8759 3.02708 39.8971 3.06099 39.9072 3.11137C40.0135 3.26247 40.0909 3.42796 40.2107 3.58471C40.3403 3.75397 40.4904 3.91038 40.6648 4.05C40.7725 4.12316 40.8533 4.1807 40.9645 4.23757C41.0441 4.27834 41.2326 4.34071 41.2708 4.37375C41.3014 4.36965 41.2764 4.36673 41.3214 4.37342C41.349 4.37735 41.3564 4.38182 41.3832 4.3921L41.5758 4.4368L41.6155 4.43217C41.8163 4.42514 42.001 4.48631 42.3103 4.36434C42.8627 4.14679 43.2525 3.63267 43.4108 3.08071C43.4428 2.96937 43.4724 2.82065 43.4717 2.71804L43.4733 2.34065C43.4471 2.30502 43.4603 2.3391 43.4516 2.28001C43.4469 2.24882 43.4449 2.2454 43.4531 2.22365C43.3821 2.05097 43.3997 1.94423 43.2304 1.5922C42.8906 0.885373 41.7609 -0.0662646 40.8222 0.00364013C40.5952 0.020442 40.4406 0.0523037 40.1907 0.194136C39.8672 0.377608 39.6337 0.75107 39.5608 1.1038L39.5019 1.44127H39.5018ZM37.9765 7.01643C38.0053 7.02123 38.142 7.08391 38.1913 7.09917C38.2595 7.12007 38.3659 7.13977 38.4137 7.16941L38.7709 7.20847C38.987 7.22577 39.0879 7.23142 39.2881 7.19596C39.3625 7.18295 39.3957 7.18242 39.4662 7.16188C39.6473 7.10895 39.7136 7.05995 39.775 7.03991C39.8224 7.02449 39.7901 7.03238 39.8236 7.03014C39.8548 6.98611 39.9068 6.95203 39.9544 6.91896L40.1288 6.75074L40.2725 6.57036C40.4092 6.27279 40.5407 6.12958 40.5583 5.68658C40.5775 5.19817 40.42 4.91928 40.4156 4.80723C40.3717 4.77057 40.3212 4.62171 40.2812 4.5513C40.2487 4.4939 40.1283 4.32689 40.1164 4.29315C39.7737 3.92876 39.6826 3.79822 39.1699 3.57022C38.7388 3.37834 38.6393 3.36823 38.2103 3.27506L37.7382 3.24901C37.6889 3.24851 37.716 3.2557 37.6751 3.23994C37.588 3.27197 37.4972 3.26804 37.3916 3.28585C36.5878 3.42153 36.102 4.13881 36.2523 4.94499C36.3796 5.62749 36.7901 6.17757 37.3629 6.63394C37.583 6.80955 37.7542 6.88749 37.9765 7.01648V7.01643ZM39.762 10.9186L39.7713 10.9035C39.8598 10.8286 39.9431 10.782 40.0424 10.6895C40.1508 10.5888 40.1942 10.5132 40.28 10.3976C40.2884 10.3719 40.3163 10.3102 40.3572 10.2693C40.3536 10.154 40.5302 9.91877 40.4281 9.38566C40.3286 8.86761 40.1034 8.70007 40.0226 8.54778C40.0089 8.52207 40.0099 8.52449 40.0058 8.50651C39.9566 8.48749 39.9525 8.4726 39.9096 8.43146L39.6983 8.24628L39.5672 8.1392C39.5191 8.13799 39.3847 8.04738 39.3236 8.01723C39.1176 7.9158 38.8122 7.83033 38.5938 7.78751C37.9832 7.6676 37.1821 7.66125 36.7015 8.13698C36.4332 8.40252 36.3218 8.77922 36.3819 9.11638C36.5563 10.0961 37.7966 11.0268 38.8011 11.1404C38.9331 11.1555 39.1363 11.1356 39.2824 11.0986C39.4791 11.0489 39.6953 10.9237 39.7621 10.9186H39.762ZM41.0041 5.9894C41.0015 6.03531 40.9625 6.12646 40.9286 6.15933C40.9289 6.1638 40.9256 6.1674 40.9287 6.17251C40.94 6.1917 40.8652 6.39265 40.855 6.42777C40.8279 6.51976 40.8089 6.62922 40.775 6.71368L40.7723 6.70733C40.7801 6.756 40.7629 6.80413 40.7512 6.86049C40.7399 6.91547 40.7365 6.96121 40.7276 7.01895C40.6799 7.32835 40.6501 7.6547 40.6525 7.95671L40.687 8.57445C40.7012 8.68152 40.7026 8.77435 40.7206 8.88795C40.7343 8.97497 40.7671 9.1336 40.7564 9.20677C40.7874 9.24753 40.7682 9.21191 40.781 9.26776L40.8598 9.68354C40.9164 9.81203 40.9566 10.015 41.0039 10.1699C41.1501 10.6496 41.3668 11.196 41.6588 11.6279C41.8936 11.975 42.172 12.2936 42.5234 12.5604C42.6876 12.6849 42.8539 12.7892 43.029 12.8691C43.2545 12.9718 43.4537 12.9988 43.5456 13.0376L43.5371 13.037L43.5629 13.0329C43.5811 13.0322 43.573 13.0307 43.5994 13.0329C43.6304 13.0354 43.6388 13.0406 43.6674 13.0432C43.7376 13.0497 43.7408 13.0392 43.8112 13.0606C43.8416 13.0421 43.7863 13.049 43.8588 13.0461C43.9346 13.0432 43.8736 13.0396 43.9072 13.0572L44.1766 13.0192L44.1891 13.0067C44.4103 12.9191 44.3692 12.9573 44.6145 12.8359L44.6864 12.81C44.7169 12.7716 44.8122 12.7082 44.8581 12.6858C45.4264 12.1707 45.4683 12.0514 45.765 11.353C45.9609 10.8918 46.0154 10.4104 46.5 10.0224C47.2389 9.43053 48.085 9.41701 48.6217 8.36566C48.6838 8.24386 48.7247 8.11366 48.7846 8.00745C48.7809 7.972 48.7937 7.95879 48.8156 7.93567C48.8076 7.8709 48.9134 7.53703 48.869 7.21667C48.838 6.9919 48.8189 6.77195 48.6999 6.51515C48.432 5.9363 48.0556 5.58886 47.4875 5.2697L47.4741 5.2495L46.9765 5.03914C46.5662 4.87177 46.1545 4.7981 45.7353 4.71229C45.6578 4.69653 45.5572 4.68934 45.4789 4.65815C45.4591 4.66279 45.096 4.6275 45.0494 4.60213C45.026 4.6064 45.0373 4.60505 45.0123 4.60572L44.3447 4.55346C43.6994 4.52264 43.2679 4.45496 42.5945 4.64391C42.534 4.66088 42.477 4.67903 42.4169 4.70094C42.3601 4.72168 42.2877 4.75714 42.2324 4.75371C42.2078 4.78352 42.2091 4.78711 42.1554 4.80288L42.1367 4.8058C42.0761 4.85087 42.0479 4.8541 41.9871 4.88939C41.9349 4.9197 41.8904 4.96168 41.8418 4.96289L41.7427 5.04187C41.5722 5.19486 41.4366 5.29541 41.2839 5.49824C41.1552 5.66938 41.1001 5.82099 41.0041 5.9894Z" fill="#C2C2C3"/>
</svg>
