<svg class='decore-bg' width="639" height="190" viewBox="0 0 639 190" fill="none"
  xmlns="http://www.w3.org/2000/svg">
  <path fill-rule="evenodd" clip-rule="evenodd" d="M524.589 61.09C522.699 18.9087 591.12 -19.7453 616.827 17.2364C624.31 28.0041 631.933 34.1601 638.983 38.0834L638.983 100.036C596.824 115.778 526.288 99.1013 524.589 61.09Z" fill="url(#paint0_linear_8_18)"/>
  <path fill-rule="evenodd" clip-rule="evenodd" d="M252.266 62.0271C234.868 62.4301 220.666 51.1577 220.549 36.8507C220.431 22.5437 234.533 -10.1367 251.845 10.2145C269.157 30.5657 289.642 19.443 289.757 33.7491C289.874 48.056 269.664 61.6241 252.266 62.0271Z" fill="url(#paint1_linear_8_18)"/>
  <path fill-rule="evenodd" clip-rule="evenodd" d="M312.8 47.529C300.605 56.5118 289.954 65.6681 279.648 70.7763C269.343 75.8845 259.379 76.9384 248.042 76.0581C236.705 75.1778 223.996 72.3602 213.174 67.4287C202.354 62.4972 193.421 55.4517 182.084 51.7539C170.747 48.056 157.007 47.7026 142.236 52.2808C127.466 56.859 111.664 66.3687 99.638 75.3514C87.6151 84.3341 79.3681 92.7868 74.2167 97.5417C69.0653 102.297 67.0036 103.353 58.929 112.863C50.8572 122.373 36.7697 140.338 22.1711 159.848C14.5361 170.052 6.76141 180.677 -0.00012207 190.001L638.98 190.001L638.98 126.448C601.26 127.551 564.424 120.171 539.184 107.929C513.763 95.6014 500.106 78.3426 487.783 64.4314C475.461 50.5202 464.469 39.9536 451.584 32.7315C438.703 25.5094 423.929 21.6379 407.096 20.2275C390.264 18.8172 371.369 19.8742 355.051 24.8057C338.732 29.7372 324.992 38.5433 312.797 47.526L312.8 47.529Z" fill="url(#paint2_linear_8_18)"/>
  <defs>
    <linearGradient id="paint0_linear_8_18" x1="581.767" y1="105.939" x2="581.767" y2="2.37732" gradientUnits="userSpaceOnUse">
      <stop stop-color="#148878"/>
      <stop offset="1" stop-color="#32B3A1"/>
    </linearGradient>
    <linearGradient id="paint1_linear_8_18" x1="246.163" y1="62.2323" x2="262.649" y2="10.1883" gradientUnits="userSpaceOnUse">
      <stop stop-color="#2AAC9B"/>
      <stop offset="1" stop-color="#1F9A8A"/>
    </linearGradient>
    <linearGradient id="paint2_linear_8_18" x1="319.49" y1="190.001" x2="319.49" y2="19.6523" gradientUnits="userSpaceOnUse">
      <stop stop-color="#127B6D"/>
      <stop offset="1" stop-color="#29B5A2"/>
    </linearGradient>
  </defs>
</svg>
