<svg class='svg-decore-header' width="552" height="162" viewBox="0 0 552 162" fill="none" xmlns="http://www.w3.org/2000/svg">
<path fill-rule="evenodd" clip-rule="evenodd" d="M98.7715 111.306C100.403 147.726 41.3262 181.101 19.1305 149.17C12.669 139.873 6.08697 134.558 0 131.17V77.6779C36.4012 64.0859 97.3042 78.4853 98.7715 111.306Z" fill="url(#paint0_linear_8_13)"/>
<path fill-rule="evenodd" clip-rule="evenodd" d="M324.982 112.847C339.197 107.979 353.826 113.554 357.653 125.3C361.48 137.046 358.395 167.623 338.838 155.385C319.282 143.148 305.32 157.644 301.496 145.899C297.669 134.153 310.766 117.715 324.982 112.847Z" fill="url(#paint1_linear_8_13)"/>
<path fill-rule="evenodd" clip-rule="evenodd" d="M281.637 123.014C292.167 115.259 301.362 107.353 310.261 102.942C319.159 98.5315 327.762 97.6215 337.551 98.3816C347.339 99.1417 358.313 101.574 367.657 105.832C376.999 110.091 384.713 116.174 394.501 119.367C404.289 122.56 416.153 122.865 428.907 118.912C441.66 114.959 455.304 106.748 465.687 98.9918C476.068 91.2358 483.189 83.9375 487.637 79.832C492.085 75.7265 493.865 74.8139 500.837 66.6029C507.806 58.392 519.97 42.88 532.575 26.0347C539.167 17.2241 545.88 8.05053 551.718 0H0.00250244V54.873C32.5715 53.9209 64.3761 60.2935 86.1691 70.8636C108.119 81.5073 119.91 96.4091 130.55 108.42C141.19 120.432 150.681 129.555 161.806 135.791C172.928 142.027 185.684 145.37 200.218 146.587C214.752 147.805 231.066 146.893 245.156 142.635C259.246 138.377 271.11 130.773 281.639 123.017L281.637 123.014Z" fill="url(#paint2_linear_8_13)"/>
<defs>
<linearGradient id="paint0_linear_8_13" x1="49.4023" y1="72.5817" x2="49.4023" y2="162" gradientUnits="userSpaceOnUse">
<stop stop-color="#179483"/>
<stop offset="1" stop-color="#19AB98"/>
</linearGradient>
<linearGradient id="paint1_linear_8_13" x1="329.952" y1="111.087" x2="329.952" y2="158.224" gradientUnits="userSpaceOnUse">
<stop stop-color="#179483"/>
<stop offset="1" stop-color="#19AB98"/>
</linearGradient>
<linearGradient id="paint2_linear_8_13" x1="275.86" y1="0" x2="275.86" y2="147.084" gradientUnits="userSpaceOnUse">
<stop stop-color="#148878"/>
<stop offset="0.747871" stop-color="#19AB98"/>
</linearGradient>
</defs>
</svg>
