<svg width="160" height="48" viewBox="0 0 160 48" fill="none" xmlns="http://www.w3.org/2000/svg">
<path fill-rule="evenodd" clip-rule="evenodd" d="M131.507 15.2138C131.036 4.709 148.075 -4.91733 154.477 4.29254C156.341 6.97411 158.239 8.50719 159.995 9.48424L159.995 24.9129C149.496 28.8332 131.93 24.68 131.507 15.2138Z" fill="url(#paint0_linear_80_496)"/>
<path fill-rule="evenodd" clip-rule="evenodd" d="M63.688 15.4471C59.3552 15.5475 55.8184 12.7402 55.7892 9.17724C55.7599 5.61426 59.2717 -2.52443 63.583 2.5438C67.8944 7.61203 72.996 4.84205 73.0246 8.40481C73.0538 11.9678 68.0208 15.3468 63.688 15.4471Z" fill="url(#paint1_linear_80_496)"/>
<path fill-rule="evenodd" clip-rule="evenodd" d="M78.7632 11.8366C75.7262 14.0736 73.0738 16.3539 70.5073 17.626C67.9408 18.8981 65.4593 19.1606 62.6361 18.9414C59.8128 18.7222 56.6477 18.0205 53.9525 16.7923C51.258 15.5642 49.0333 13.8096 46.21 12.8887C43.3867 11.9678 39.965 11.8798 36.2864 13.0199C32.6079 14.1601 28.6727 16.5284 25.6778 18.7654C22.6836 21.0024 20.6298 23.1075 19.3469 24.2916C18.064 25.4758 17.5506 25.739 15.5397 28.1073C13.5295 30.4755 10.0211 34.9496 6.38556 39.8083C4.48415 42.3495 2.54796 44.9954 0.864075 47.3174L159.995 47.3175L159.995 31.4905C150.601 31.7651 141.427 29.9271 135.142 26.8784C128.811 23.8084 125.41 19.5103 122.341 16.0459C119.272 12.5815 116.535 9.94999 113.326 8.1514C110.118 6.35282 106.439 5.38867 102.247 5.03744C98.0547 4.68622 93.3493 4.94945 89.2853 6.17758C85.2213 7.40572 81.7996 9.59876 78.7625 11.8358L78.7632 11.8366Z" fill="url(#paint2_linear_80_496)"/>
<defs>
<linearGradient id="paint0_linear_80_496" x1="145.746" y1="26.3828" x2="145.746" y2="0.592049" gradientUnits="userSpaceOnUse">
<stop stop-color="#148878"/>
<stop offset="1" stop-color="#32B3A1"/>
</linearGradient>
<linearGradient id="paint1_linear_80_496" x1="62.168" y1="15.4982" x2="66.2737" y2="2.53727" gradientUnits="userSpaceOnUse">
<stop stop-color="#2AAC9B"/>
<stop offset="1" stop-color="#1F9A8A"/>
</linearGradient>
<linearGradient id="paint2_linear_80_496" x1="80.4294" y1="47.3175" x2="80.4294" y2="4.89419" gradientUnits="userSpaceOnUse">
<stop stop-color="#127B6D"/>
<stop offset="1" stop-color="#29B5A2"/>
</linearGradient>
</defs>
</svg>
