<svg width="63" height="64" viewBox="0 0 63 64" fill="none" xmlns="http://www.w3.org/2000/svg">
<path fill-rule="evenodd" clip-rule="evenodd" d="M0 31.8528C0.215968 31.7673 6.51724 31.5716 7.37097 31.5264C16.2946 31.0525 24.3797 30.1592 28.3081 21.5725C29.9932 17.8889 30.3981 12.5813 30.6097 8.42654C30.7348 5.96774 30.8777 3.39404 30.8777 0.925781H24.9063C24.7174 0.930513 24.5751 0.936597 24.4947 0.94437L23.7268 0.954509C22.3069 1.07753 21.6289 0.923077 20.3095 1.04576L18.7896 1.12958C18.164 1.1431 17.6979 1.20123 17.1034 1.23571C14.7572 1.37157 11.0144 1.96912 8.90405 2.785L7.8607 3.22235C6.74098 3.72188 5.98323 4.1964 5.04602 4.95111C4.43495 5.4432 3.60556 6.44429 3.2135 7.10031L2.50104 8.37888C2.16239 9.04977 1.90518 9.7798 1.66454 10.5034C1.57768 10.7647 1.49353 11.0405 1.42864 11.2885C0.935525 13.1691 0.753692 14.376 0.500884 16.3846C0.242331 18.4392 0.129446 20.8601 0.104097 22.9305C0.100042 23.2553 0.0503588 23.5034 0.0510348 23.8985C0.0527246 25.271 0 26.4702 0 27.8292C0 29.1703 0 30.5117 0 31.8528H0ZM31.508 63.3595L36.3121 63.3443C36.571 63.3443 36.791 63.3443 37.0397 63.345L43.9997 63.1226C44.2607 63.0888 44.6436 63.0864 44.8802 63.0611C45.2195 63.0246 45.5054 63.0246 45.8387 62.9986C48.7629 62.7715 51.9933 62.2168 54.6751 61.0123C55.7702 60.5205 56.8402 59.8784 57.698 59.0324L58.1833 58.5477C59.2571 57.4828 60.197 55.5171 60.6793 54.1013C61.4854 51.7354 61.6801 49.8992 61.9893 47.4985C62.1282 46.4214 62.1789 44.9211 62.2709 43.946L62.4334 32.4615C61.1978 32.4639 59.8959 32.543 58.6538 32.5917C55.3186 32.7228 51.0635 32.8904 47.8865 33.392C43.0422 34.1575 39.8156 35.5645 37.2081 38.1855C32.7099 42.708 32.1752 49.3973 31.8369 55.9967C31.792 56.8737 31.6128 63.1121 31.5077 63.3595H31.508ZM30.9254 63.3595C30.8331 63.0415 30.6793 56.9515 30.6154 55.9561C30.1835 49.2209 29.8428 42.8189 25.201 38.1588C20.6032 33.5427 14.1322 33.1689 7.45276 32.7471C6.46012 32.6846 0.299111 32.5214 0 32.4345C0 33.7411 0 35.0481 0 36.3547C0 37.7053 0.0510348 38.8838 0.0510348 40.2344C0.0510348 40.9195 0.105449 41.4251 0.101732 42.1237L0.204477 44.012C0.272749 45.2922 0.320404 46.4606 0.474522 47.6729C0.62188 48.8332 0.757748 49.9753 0.982504 51.0956C1.81359 55.2366 3.31996 58.7934 7.14689 60.7054C11.3845 62.8225 16.3041 63.0104 20.9807 63.2544L22.2589 63.2889C22.3745 63.2916 22.4455 63.2892 22.577 63.2987C22.9092 63.3227 23.2499 63.3088 23.5848 63.3088L30.9254 63.3599V63.3595ZM62.4334 31.8035L62.3658 22.9177C62.3554 22.7545 62.3293 22.4875 62.331 22.112C62.3327 21.7699 62.3178 21.4063 62.2976 21.2211C62.2306 20.6147 62.2573 19.2942 62.1488 18.5676C62.109 18.3016 62.0867 17.8713 62.0758 17.6196C62.0322 16.606 61.6469 14.0988 61.4773 13.2154C60.9494 10.4652 59.8448 7.26862 57.8018 5.3026C57.6828 5.18803 57.6365 5.1762 57.5209 5.07312C56.0683 3.779 54.3216 2.97393 52.2177 2.36151C49.4797 1.56456 48.1335 1.57504 45.5409 1.25092C45.2594 1.21577 44.914 1.19785 44.7649 1.18738L42.2547 1.0559C41.0404 0.960255 40.3631 1.06131 38.8469 0.97445C38.4687 0.95282 38.0611 0.937273 37.6349 0.926457H31.5557C31.6317 2.14284 31.6216 3.38593 31.6801 4.62191C31.9349 10.0005 31.9819 16.612 34.1047 21.4918C35.6233 24.9824 38.3508 27.7207 41.8323 29.2396C45.5484 30.8609 50.7958 31.3905 54.9783 31.5203C57.4347 31.5967 59.9493 31.7234 62.4334 31.8038V31.8035Z" fill="#333333"/>
</svg>
