<svg width="265" height="60" viewBox="0 0 265 60" fill="none" xmlns="http://www.w3.org/2000/svg">
<path d="M0.239904 29.31L0.479807 28.0062L2.56593 28.1314C3.83846 28.1939 5.15271 28.2252 6.51912 28.2252C7.27012 28.2252 8.52179 28.2044 10.295 28.1626L12.2559 28.1001L12.2872 29.3622C12.2872 30.2175 12.2664 30.6556 12.2247 30.6973C12.0891 30.7181 11.9117 30.7286 11.7136 30.7286C11.3485 30.7286 10.6914 30.7181 9.73174 30.6973C8.78256 30.6764 8.21931 30.666 8.06285 30.666H7.90639C7.83337 30.7077 7.79165 32.0115 7.79165 34.5879C7.79165 35.3389 7.80208 35.7353 7.82294 35.7978C7.89596 36.0586 8.07328 36.2985 8.33404 36.5175L8.75127 36.8826L8.30275 37.1538C8.04199 37.3207 7.8751 37.5293 7.82294 37.7901C7.80208 37.8527 7.79165 38.3325 7.79165 39.2399C7.79165 40.0848 7.80208 40.7524 7.82294 41.2322C7.85423 42.8802 7.8751 43.8815 7.8751 44.2258V44.6117C7.85423 44.7369 7.77079 44.7994 7.62476 44.8203C7.4683 44.8412 6.99893 44.8516 6.21663 44.8516H4.62075L4.55817 44.5491V44.3718C4.55817 44.0902 4.5686 43.1305 4.59989 41.5034C4.63118 39.8762 4.65204 38.8436 4.65204 38.4263V38.0613C4.5686 37.8631 4.41214 37.6962 4.16181 37.5815C3.9219 37.4563 3.79673 37.3624 3.7863 37.2894C3.77587 37.2268 3.86975 37.1121 4.07836 36.9765C4.27654 36.8513 4.44343 36.6323 4.58946 36.3089C4.71463 36.069 4.76678 35.6414 4.76678 35.0155C4.76678 34.348 4.75635 33.7326 4.73549 33.1693L4.65204 30.5721L3.31693 30.6347C2.83712 30.6556 2.08612 30.6973 1.05349 30.7599H0.636266C0.271195 30.7599 0.0730141 30.739 0.0312918 30.6973C0.0104306 30.6556 0 30.6243 0 30.6034C0 30.5408 0.0834447 30.1132 0.239904 29.31ZM16.2091 28.1001C16.2926 28.0583 16.8454 28.0375 17.8676 28.0375H19.4113V34.953L19.9224 35.0468C20.1519 35.0781 21.414 35.099 23.7296 35.099C26.0869 35.099 27.422 35.0781 27.7454 35.0468L28.4338 34.953V28.0375L30.1027 27.9749L31.7611 27.9436L31.6673 31.9072L31.6047 35.8291L31.9385 36.1629C32.1784 36.3611 32.3035 36.5071 32.3035 36.5801C32.3035 36.6427 32.1784 36.7262 31.9385 36.82L31.5838 37.0078L31.636 39.2399C31.6568 39.5841 31.6881 40.2621 31.7299 41.2739C31.7716 42.2961 31.8029 42.9949 31.8237 43.3704C31.8446 43.7981 31.855 44.2466 31.855 44.7369C31.855 45.1124 31.8133 45.3105 31.7299 45.3105C31.3648 45.3314 30.812 45.3418 30.0714 45.3418C29.1013 45.3418 28.5798 45.321 28.4964 45.2792C28.4338 45.2584 28.4129 44.862 28.4129 44.1006C28.4129 43.6729 28.4234 42.9011 28.4547 41.7641C28.4859 40.6272 28.4964 39.824 28.4964 39.3651C28.4964 38.5098 28.4547 38.0508 28.3816 37.9674C28.2982 37.8735 26.9005 37.8214 24.1781 37.8214C21.4453 37.8214 19.9954 37.8527 19.839 37.9152L19.5365 37.9674V45.3627H16.303L16.3343 41.3573V39.386C16.3343 37.9778 16.2822 37.1955 16.1778 37.0391C16.084 36.8513 15.9588 36.7679 15.8232 36.7679C15.5207 36.7262 15.552 36.528 15.9067 36.1942L16.303 35.8604V34.5253C16.303 33.8265 16.2613 32.5435 16.1778 30.6973C16.157 30.1757 16.1466 29.5708 16.1466 28.8824C16.1466 28.3817 16.1674 28.1209 16.2091 28.1001ZM36.4132 28.0375C36.4132 27.9958 38.176 27.9749 41.7224 27.9749C45.2479 27.9749 47.0733 28.0166 47.2193 28.1001C47.3132 28.1835 47.4175 28.4547 47.5009 28.9345C47.5948 29.4039 47.6365 29.8211 47.6365 30.1862C47.6365 30.4887 47.6052 30.6451 47.5531 30.666L47.4905 30.6973C47.4488 30.6973 47.3966 30.6973 47.3236 30.6973C47.2506 30.6973 47.1776 30.6973 47.0941 30.6973C46.8959 30.6973 46.3535 30.6764 45.4669 30.6347C43.4956 30.5304 42.0561 30.4887 41.1487 30.4887C40.5854 30.4887 40.2204 30.5095 40.0639 30.5408C39.8449 30.6243 39.6988 30.8224 39.6362 31.1354C39.5841 31.4483 39.5528 32.0637 39.5528 32.992C39.5528 34.1811 39.6049 34.8174 39.7301 34.9217C39.8136 35.0051 40.356 35.0468 41.3573 35.0468C42.2022 35.0468 42.9532 35.0364 43.5894 35.0155C43.9962 35.0155 44.4552 35.0051 44.9871 34.9947C45.5087 34.9843 45.8529 34.9843 46.0093 34.9843C46.5934 34.9843 46.9689 35.0155 47.1463 35.0886C47.3132 35.1616 47.3966 35.3076 47.3966 35.5266C47.3966 35.5892 47.3549 35.9334 47.2819 36.5801L47.1254 37.7275L45.1019 37.6962C43.0888 37.6545 41.9101 37.6441 41.5763 37.6441C40.4603 37.6441 39.8657 37.6753 39.7614 37.7588C39.6571 37.8631 39.5841 38.3951 39.5215 39.3651C39.5006 39.605 39.4902 39.9388 39.4902 40.3873C39.4902 41.5555 39.6154 42.2335 39.8761 42.4421C40.1265 42.6194 40.8253 42.7133 41.9936 42.7133C42.9845 42.7133 44.6534 42.6299 47.0107 42.4734L48.0329 42.3795L47.9703 42.8906C47.8347 44.2779 47.6678 45.0811 47.4905 45.3105C47.4279 45.4044 47.1984 45.4253 46.7916 45.3627C46.4683 45.3105 44.6429 45.2584 41.2947 45.2167L36.3819 45.1541L36.3506 44.038C36.3506 42.8072 36.3923 41.5451 36.4653 40.2308C36.5279 39.1669 36.5592 38.3429 36.5592 37.7588C36.5592 37.4354 36.5488 37.2581 36.5279 37.2164C36.4653 37.0391 36.2985 36.8618 36.0168 36.7053C35.7561 36.5593 35.6205 36.4758 35.6205 36.4341L36.0168 36.0377C36.4236 35.6518 36.6218 34.9843 36.6218 34.0142C36.6218 33.816 36.6009 33.3571 36.5592 32.6269C36.4341 30.3322 36.3819 28.9449 36.3819 28.4651C36.3819 28.3817 36.3923 28.2878 36.4132 28.1939V28.0375Z" fill="url(#paint0_linear_24_127)"/>
<path d="M78.0834 8.31325C79.3246 8.14637 80.5867 8.05249 81.8906 8.05249C86.2193 8.05249 90.089 8.86608 93.4894 10.4828C95.5338 11.4111 97.4843 12.7358 99.3409 14.4673C101.198 16.1988 102.126 17.5026 102.126 18.3683C102.126 18.8899 101.166 20.0477 99.2471 21.8417L96.6498 24.3555L93.5833 21.3202C90.6731 18.4309 87.7943 16.7516 84.9572 16.2927C84.081 16.1779 83.403 16.1153 82.9128 16.1153C80.5554 16.1153 78.5215 16.5534 76.7796 17.4192C74.7456 18.3371 72.8577 20.0164 71.1262 22.4467C69.3843 24.877 68.5185 27.0362 68.5185 28.945C68.5185 29.4143 68.5498 29.7585 68.6124 29.988C68.9253 30.6764 69.4156 31.4066 70.104 32.1576L71.3974 33.451L70.104 34.0664C68.8628 34.6401 68.2473 35.5058 68.2473 36.6636C68.2473 37.2373 68.3099 37.7067 68.4247 38.0509C68.9253 40.0118 69.9788 41.9832 71.5851 43.9442C73.1914 45.9051 74.8603 47.3237 76.6023 48.1894C78.4589 49.1699 80.7119 49.6705 83.3717 49.6705C86.6573 49.6705 89.8387 48.9404 92.9366 47.501L94.7932 46.6352L94.6054 42.1188C94.3551 38.9479 94.1778 37.2686 94.0526 37.0913C93.99 36.9765 93.1034 36.3924 91.4033 35.3181C89.7031 34.2541 88.8478 33.6596 88.8478 33.5449C88.8478 33.3675 90.1829 33.2841 92.8427 33.2841H96.2743L103.795 33.3675L103.889 40.9923C103.889 46.5414 103.983 50.2755 104.17 52.1843C104.295 53.6863 104.358 54.4895 104.358 54.6042C104.358 55.3552 104.202 55.7933 103.889 55.908H103.795C103.367 55.908 102.345 55.5638 100.728 54.865L98.0371 53.7385L95.4399 54.865C91.664 56.5965 87.4918 57.4726 82.9128 57.4726C78.824 57.4726 75.3297 56.8364 72.4196 55.5638C69.572 54.2913 66.9748 52.3408 64.6279 49.7123C62.2706 47.0838 60.633 44.2884 59.7047 41.3469C59.2666 39.605 58.9641 38.1969 58.7764 37.0913C58.526 35.9439 58.3279 35.2033 58.1714 34.88C58.0149 34.5671 57.629 34.2333 57.0136 33.8891L55.7098 33.1068L56.9197 32.0637C57.4725 31.6048 57.8585 31.1458 58.0775 30.6764C58.2966 30.2175 58.5573 29.237 58.8702 27.735C59.5482 24.5015 60.6643 21.6123 62.208 19.0672C63.8769 16.2927 66.1404 13.9353 68.9879 11.9953C71.8355 10.0656 74.8603 8.83478 78.0834 8.31325Z" fill="#060606"/>
<path d="M115.613 27.2552C115.613 25.868 115.55 22.8953 115.425 18.3267C115.3 13.7685 115.237 10.9314 115.237 9.83615C115.362 9.60668 117.063 9.49194 120.338 9.49194H125.355L125.073 20.2355C125.011 21.9148 124.979 24.0218 124.979 26.5668C124.979 29.6334 125.073 31.3649 125.261 31.7717C125.449 32.2828 125.908 32.7835 126.659 33.2424L127.67 33.8474L126.659 34.3689C125.97 34.7131 125.511 35.2033 125.261 35.8396C125.011 36.4759 124.885 37.5711 124.885 39.1357C124.885 39.3652 124.906 39.7407 124.938 40.2622C124.969 40.7837 124.979 41.1905 124.979 41.4721C125.042 44.5387 125.386 46.6248 126.002 47.7201C126.377 48.4085 126.742 48.93 127.118 49.2742C127.493 49.6289 128.109 50.0044 128.974 50.4007C129.965 50.8701 130.8 51.1413 131.478 51.2247C132.166 51.3186 133.866 51.3603 136.589 51.3603C140.239 51.3603 142.617 51.1309 143.734 50.6615C145.59 49.7957 146.863 48.6692 147.541 47.282C147.916 46.5936 148.094 44.3927 148.094 40.7003V35.2346C147.103 34.4211 146.331 33.8474 145.778 33.5032C146.028 33.3258 146.383 33.0859 146.842 32.7626C147.311 32.4497 147.666 32.1993 147.916 32.0324C147.979 29.5395 148 25.8158 148 20.8404C148 15.8755 148.031 12.1517 148.094 9.65883L152.641 9.57539C155.739 9.57539 157.377 9.65883 157.564 9.83615C157.627 9.88831 157.658 10.7019 157.658 12.2665C157.658 15.3226 157.596 17.9824 157.471 20.2355C157.283 23.7088 157.199 26.2748 157.199 27.9541C157.199 29.915 157.314 31.2189 157.564 31.8551C157.815 32.4914 158.305 32.9816 159.056 33.3258L160.162 33.9308L159.14 34.2855C158.336 34.5671 157.794 35.2033 157.523 36.1838C157.241 37.1747 157.106 38.9062 157.106 41.3887C157.106 45.321 156.834 48.2416 156.313 50.1504C155.791 52.0488 154.811 53.6133 153.392 54.8233C151.838 56.1584 149.971 57.1076 147.77 57.6917C145.58 58.2654 142.43 58.6096 138.351 58.7243H135.566C125.97 58.7243 120.098 56.9407 117.928 53.3526C116.687 51.329 115.978 47.3758 115.79 41.4721C115.665 38.3012 115.519 36.2881 115.331 35.4537C115.143 34.6088 114.684 34.0768 113.933 33.8474C113.506 33.7326 113.474 33.5345 113.839 33.2424C113.965 33.1277 114.121 33.0129 114.309 32.8982L115.519 32.1159L115.613 27.2552Z" fill="#060606"/>
<path d="M182.108 0.375501C183.151 0.125167 184.58 0 186.405 0H187.876C190.473 0.0625835 193.081 0.511099 195.688 1.32468C198.035 2.1487 199.6 2.81626 200.382 3.32736L201.655 4.27654L200.58 6.36266C199.402 8.83471 198.755 10.2533 198.619 10.6392C198.557 10.827 198.494 11.0147 198.432 11.2025C198.359 11.4006 198.317 11.5362 198.275 11.6301C198.244 11.7344 198.202 11.8387 198.129 11.9639C198.066 12.0891 198.004 12.1934 197.941 12.2559C197.868 12.3185 197.795 12.3602 197.691 12.3915C197.597 12.4228 197.482 12.4437 197.347 12.4437C197.086 12.4437 195.49 11.9326 192.559 10.9208C190.212 10.1594 188.46 9.78389 187.281 9.78389H186.499C182.723 10.0342 180.606 11.7761 180.147 15.0096C180.147 15.1348 180.136 15.3121 180.105 15.5311C180.063 15.7502 180.053 15.9275 180.053 16.0527C180.053 17.8885 180.7 19.4426 182.003 20.7047C182.848 21.5287 185.133 22.989 188.846 25.0751C191.714 26.7858 193.738 28.1104 194.906 29.0596C196.085 30.0088 196.992 31.0936 197.649 32.2931C198.817 34.4418 199.402 36.5384 199.402 38.5619C199.402 39.3233 199.798 39.9805 200.58 40.5541L201.655 41.3156L200.58 42.3586C199.798 42.9949 199.214 44.0067 198.817 45.3939C197.576 49.7018 195.042 53.1543 191.193 55.7515C187.354 58.3487 182.89 59.6421 177.8 59.6421H177.31C175.036 59.5795 173.701 59.4231 173.304 59.1727C172.918 58.912 172.595 57.9941 172.334 56.4191C171.938 54.3851 171.646 52.9978 171.448 52.2364C171.187 51.2246 171.062 50.4319 171.062 49.8582V49.0029H176.924C179.656 49.0029 181.419 48.9612 182.202 48.8673C182.984 48.7734 183.891 48.471 184.934 47.9599C187.615 46.6352 189.044 44.5803 189.242 41.7849V40.7419C189.242 39.0939 188.689 37.7066 187.573 36.5696C186.468 35.4223 184.089 33.7117 180.439 31.4378C177.122 29.2891 175.036 27.7975 174.191 26.9735C172.292 24.95 171.187 22.7908 170.864 20.517C170.603 19.1819 170.405 18.3578 170.279 18.0449C170.144 17.732 169.852 17.4399 169.393 17.1896L168.423 16.7202L169.591 15.8649C170.311 15.3538 170.665 14.7489 170.665 14.0604C170.665 12.1621 171.448 9.81519 173.012 7.03022C174.838 3.9219 177.873 1.71062 182.108 0.375501Z" fill="#060606"/>
<path d="M252.629 11.1712C252.629 9.27282 252.691 8.26105 252.806 8.14631C252.921 8.02115 253.589 7.96899 254.798 7.96899C255.028 7.96899 255.466 7.97942 256.102 8.01072C256.739 8.04201 257.229 8.05244 257.573 8.05244L262.079 8.14631L261.996 18.2848C261.996 19.0359 261.975 19.985 261.954 21.1428C261.923 22.3006 261.912 23.1142 261.912 23.5732C261.912 26.5772 262.027 28.5277 262.256 29.4247C262.486 30.3217 263.007 31.1145 263.811 31.8029L264.937 32.846L263.904 33.3675C263.039 33.7743 262.486 34.2958 262.256 34.9321C262.027 35.5683 261.912 37.2164 261.912 39.8657C261.912 40.3351 261.923 41.253 261.954 42.6403C261.975 44.0275 261.996 45.2166 261.996 46.1971L262.079 56.951H252.806L252.723 53.5715V51.5689C252.723 49.7852 252.775 47.0941 252.89 43.506C253.004 40.7315 253.067 39 253.067 38.3116C253.067 36.9765 253.004 36.0794 252.89 35.6205C252.545 34.4105 251.763 33.5657 250.553 33.1067C250.261 32.992 250.522 32.533 251.336 31.7194C252.545 30.5095 253.15 28.5694 253.15 25.9096C253.15 25.4507 253.098 24.126 252.984 21.9251C252.744 16.6055 252.629 13.0278 252.629 11.1712Z" fill="#060606"/>
<path d="M175.787 3.72372L181.117 12.329C182.16 10.8061 183.954 9.95078 186.499 9.78389H187.281C188.46 9.78389 190.212 10.1594 192.559 10.9208C195.49 11.9326 197.086 12.4437 197.347 12.4437C197.482 12.4437 197.597 12.4228 197.691 12.3915C197.795 12.3602 197.868 12.3185 197.941 12.2559C198.004 12.1934 198.066 12.0891 198.129 11.9639C198.202 11.8387 198.244 11.7344 198.275 11.6301L198.432 11.2025L198.619 10.6392C198.755 10.2533 199.402 8.83471 200.58 6.36266L201.655 4.27654L200.382 3.32736C199.6 2.81626 198.035 2.1487 195.688 1.32468C193.081 0.511099 190.473 0.0625835 187.876 0H186.405C184.58 0 183.151 0.125167 182.108 0.375501C179.563 1.17866 177.456 2.29473 175.787 3.72372Z" fill="url(#paint1_linear_24_127)"/>
<path d="M222.318 0.375501C223.361 0.125167 224.8 0 226.625 0H228.086C230.693 0.0625835 233.301 0.511099 235.909 1.32468C238.256 2.1487 239.82 2.81626 240.602 3.32736L241.865 4.27654L240.79 6.36266C239.622 8.83471 238.965 10.2533 238.84 10.6392C238.777 10.827 238.714 11.0147 238.641 11.2025C238.579 11.4006 238.527 11.5362 238.495 11.6301C238.464 11.7344 238.412 11.8387 238.349 11.9639C238.287 12.0891 238.224 12.1934 238.151 12.2559C238.089 12.3185 238.005 12.3602 237.911 12.3915C237.817 12.4228 237.703 12.4437 237.567 12.4437C237.306 12.4437 235.71 11.9326 232.779 10.9208C230.433 10.1594 228.67 9.78389 227.502 9.78389H226.719C222.943 10.0342 220.826 11.7761 220.367 15.0096C220.367 15.1348 220.346 15.3121 220.315 15.5311C220.284 15.7502 220.273 15.9275 220.273 16.0527C220.273 17.8885 220.92 19.4426 222.224 20.7047C223.069 21.5287 225.353 22.989 229.066 25.0751C231.935 26.7858 233.948 28.1104 235.126 29.0596C236.295 30.0088 237.212 31.0936 237.859 32.2931C239.038 34.4418 239.622 36.5384 239.622 38.5619C239.622 39.3233 240.008 39.9805 240.79 40.5541L241.865 41.3156L240.79 42.3586C240.008 42.9949 239.424 44.0067 239.038 45.3939C237.797 49.7018 235.252 53.1543 231.413 55.7515C227.564 58.3487 223.1 59.6421 218.02 59.6421H217.53C215.256 59.5795 213.911 59.4231 213.525 59.1727C213.139 58.912 212.805 57.9941 212.544 56.4191C212.158 54.3851 211.866 52.9978 211.668 52.2364C211.407 51.2246 211.272 50.4319 211.272 49.8582V49.0029H217.144C219.877 49.0029 221.64 48.9612 222.422 48.8673C223.204 48.7734 224.112 48.471 225.155 47.9599C227.825 46.6352 229.264 44.5803 229.452 41.7849V40.7419C229.452 39.0939 228.899 37.7066 227.794 36.5696C226.688 35.4223 224.31 33.7117 220.659 31.4378C217.332 29.2891 215.256 27.7975 214.401 26.9735C212.513 24.95 211.407 22.7908 211.084 20.517C210.823 19.1819 210.625 18.3578 210.489 18.0449C210.364 17.732 210.072 17.4399 209.613 17.1896L208.633 16.7202L209.811 15.8649C210.531 15.3538 210.886 14.7489 210.886 14.0604C210.886 12.1621 211.668 9.81519 213.233 7.03022C215.058 3.9219 218.083 1.71062 222.318 0.375501Z" fill="#060606"/>
<path d="M216.007 3.72372L221.337 12.329C222.38 10.8061 224.174 9.95078 226.719 9.78389H227.502C228.67 9.78389 230.433 10.1594 232.779 10.9208C235.71 11.9326 237.306 12.4437 237.567 12.4437C237.703 12.4437 237.817 12.4228 237.911 12.3915C238.005 12.3602 238.089 12.3185 238.151 12.2559C238.224 12.1934 238.287 12.0891 238.349 11.9639C238.412 11.8387 238.464 11.7344 238.495 11.6301L238.641 11.2025L238.84 10.6392C238.965 10.2533 239.622 8.83471 240.79 6.36266L241.865 4.27654L240.602 3.32736C239.82 2.81626 238.256 2.1487 235.909 1.32468C233.301 0.511099 230.693 0.0625835 228.086 0H226.625C224.8 0 223.361 0.125167 222.318 0.375501C219.783 1.17866 217.676 2.29473 216.007 3.72372Z" fill="url(#paint2_linear_24_127)"/>
<defs>
<linearGradient id="paint0_linear_24_127" x1="24.3508" y1="27.6489" x2="23.6812" y2="45.7277" gradientUnits="userSpaceOnUse">
<stop stop-color="#C22405"/>
<stop offset="0.490196" stop-color="#E75502"/>
<stop offset="1" stop-color="#C22405"/>
</linearGradient>
<linearGradient id="paint1_linear_24_127" x1="180.413" y1="7.00198" x2="195.223" y2="0.992147" gradientUnits="userSpaceOnUse">
<stop stop-color="#0A0A0A"/>
<stop offset="0.490196" stop-color="#E75502"/>
<stop offset="1" stop-color="#C22405"/>
</linearGradient>
<linearGradient id="paint2_linear_24_127" x1="220.631" y1="7.00198" x2="235.437" y2="0.996308" gradientUnits="userSpaceOnUse">
<stop stop-color="#0A0A0A"/>
<stop offset="0.490196" stop-color="#E75502"/>
<stop offset="1" stop-color="#C22405"/>
</linearGradient>
</defs>
</svg>
