<svg width="63" height="63" viewBox="0 0 63 63" fill="none" xmlns="http://www.w3.org/2000/svg">
<path fill-rule="evenodd" clip-rule="evenodd" d="M11.0743 40.1376V22.7002C11.0743 16.0871 15.9208 11.3175 22.6406 11.3175H40.3592C47.079 11.3175 51.9255 16.0871 51.9255 22.7002V40.259C51.9255 46.6987 47.0258 51.5206 40.4823 51.5206H22.6404C15.9206 51.5206 11.0741 46.751 11.0741 40.1379L11.0743 40.1376ZM25.963 31.1767C25.963 33.0475 26.3456 34.0447 27.5311 35.2037C28.0465 35.7076 28.2869 35.9662 28.994 36.3069C31.7559 37.6377 35.1412 36.5498 36.4669 33.8851C38.1488 30.5047 36.1076 25.9697 31.2538 25.9697C28.5007 25.9697 25.9628 28.4561 25.9628 31.1767H25.963ZM22.2716 31.4189C22.2716 30.9119 22.426 29.9557 22.5247 29.4884C22.8909 27.7549 23.7741 26.2461 25.0087 25.0308C26.2074 23.8511 27.7393 22.9648 29.4366 22.6071C36.1766 21.1873 41.8459 26.8643 40.4753 33.3495C40.1091 35.083 39.2259 36.5918 37.9913 37.8071C37.2211 38.565 36.3451 39.1988 35.3133 39.652C33.3827 40.5 31.5956 40.6728 29.5384 40.2517C25.3277 39.3899 22.2716 35.5289 22.2716 31.4187V31.4189ZM40.2363 21.126C40.1389 20.5074 40.7774 19.2977 41.9824 19.218C43.0136 19.1497 43.8358 20.0018 43.8978 20.9069C44.0495 23.1216 40.6194 23.5634 40.2363 21.126ZM14.7656 21.6104V41.2277C14.7656 42.8032 15.7954 44.7019 16.8992 45.7881C18.0041 46.8755 19.9542 47.8879 21.5332 47.8879H41.4668C42.6512 47.8879 44.2249 47.2204 45.1604 46.5581C45.9289 46.0142 46.2685 45.6633 46.8306 44.9323C47.5334 44.018 48.2344 42.3887 48.2344 41.2277V21.6104C48.2344 20.0447 47.3975 18.6325 46.4961 17.5085C45.3935 16.1338 43.2513 14.95 41.4668 14.95H21.5332C19.1169 14.95 16.6173 16.8001 15.5 18.9422C15.2255 19.4687 14.7656 20.8206 14.7656 21.6102V21.6104ZM0 15.9189V46.9189C0 50.1025 1.74838 54.2559 3.90867 56.6347L6.98742 59.4174C9.49145 61.0559 12.4505 62.4189 15.7499 62.4189H47.2498C49.4474 62.4189 52.0562 61.5755 53.5258 60.8451L56.0122 59.417C59.9482 56.826 63 51.5177 63 46.9189V15.9189C63 13.4551 61.843 10.2647 60.7352 8.46024C60.1009 7.42715 59.027 6.01065 58.1726 5.16969C55.4997 2.53915 51.051 0.418945 47.2501 0.418945H15.7502C12.0342 0.418945 7.42962 2.5495 4.8263 5.16844C3.41304 6.59013 2.50613 7.97516 1.59944 9.7428C0.857466 11.1891 0.00021037 13.7565 0.00021037 15.9192L0 15.9189Z" fill="#333333"/>
</svg>
