<svg class='svg-logo-name' width="141" height="53" viewBox="0 0 141 53" fill="none" xmlns="http://www.w3.org/2000/svg">
<path fill-rule="evenodd" clip-rule="evenodd" d="M16.2699 6.99115C16.234 12.5564 16.4114 23.1189 16.3505 31.2926C16.2974 38.402 16.2415 45.3043 15.3464 52.3292C16.8573 52.3292 21.1096 52.3393 21.682 52.3215C21.682 51.3023 20.9845 47.9625 20.9267 46.0315C20.7711 40.8204 20.4596 30.4602 20.304 25.28C20.2736 24.2683 20.2493 23.4549 20.2345 22.7998L20.1246 20.102L24.1742 19.9454V21.4658C24.1765 21.6745 24.178 21.9115 24.1799 22.1811C24.1954 24.5708 24.2266 29.5042 24.0709 34.7615C23.9152 40.0188 23.5727 45.5997 23.4015 48.3902C23.2304 51.1807 22.9727 52.2796 23.0939 52.2888C23.2151 52.2979 29.412 52.2572 29.412 52.2572C29.412 52.2572 28.8338 51.1806 28.6627 46.4167C28.4915 41.6529 28.149 32.1252 27.9622 24.5862C27.7755 17.0472 27.7442 11.497 27.8221 7.84319C27.8489 6.5806 27.8888 5.54454 27.9334 4.69272L28.3655 0.668173C24.2245 0.810363 20.1486 0.942745 15.9861 0.73827L16.2697 6.99126L16.2699 6.99115ZM37.7813 3.37328L41.1546 0L44.249 3.09444L41.1546 6.18877L37.7813 3.37328ZM136.292 12.2418C136.279 12.2472 136.283 12.2486 136.286 12.2488C136.289 12.2488 136.29 12.2481 136.292 12.2418ZM141 0.710896C141.001 0.706629 130.765 0.776949 129.529 0.735222C127.284 0.659694 127.28 0.657976 127.278 0.657145C127.275 0.656203 127.331 0.653543 127.337 1.37209C127.501 18.7312 127.105 36.1211 126.798 52.2276C130.731 52.0887 136.263 52.1304 140.49 52.2482C139.974 47.5999 139.731 43.0806 139.707 38.3826C139.695 36.1232 139.761 34.103 139.821 32.6757L139.939 30.8828L139.997 30.0834L135.75 30.2992C136.063 36.3249 135.753 42.5613 135.62 48.5938L132.214 48.4712C131.971 39.168 131.635 29.4891 132.175 20.1982L136.422 20.4726L136.519 16.4738C135.432 16.5588 133.409 16.6542 132.164 16.5894C131.92 13.0887 132.281 3.94863 132.282 3.95046C132.282 3.95218 132.282 3.95218 132.92 3.96775C133.559 3.98332 134.677 4.01724 135.458 4.03015C136.238 4.04306 136.797 4.03962 136.797 4.03962C137.053 4.46398 136.539 10.1675 136.358 11.7045C136.31 12.1208 136.3 12.2191 136.292 12.2419C136.326 12.2289 136.468 12.1921 136.999 12.0924C137.746 11.9524 139.263 11.688 140.022 11.556C140.781 11.4237 140.781 11.4237 140.781 11.4237C140.781 11.4237 140.781 11.4237 140.688 10.4586C140.594 9.49345 140.407 7.56335 140.394 5.77561C140.38 3.98792 140.575 2.78185 140.7 1.95697C140.824 1.13215 140.999 0.715274 141 0.710896H141ZM112.722 19.5338C112.776 30.4039 112.812 41.3726 111.959 52.2171C115.654 52.2171 125.07 52.1221 125.176 52.2282C125.19 52.2415 125.132 48.9748 125.056 46.8326C124.721 37.4115 124.204 26.0203 124.658 16.0601C122.842 16.0601 121.256 16.2904 119.44 16.2904C118.608 16.2904 117.388 16.1692 116.714 16.0601L116.587 12.2918L116.605 6.37701L116.724 2.19342L116.767 0.700922H116.306L112.38 0.706131C112.666 7.08785 112.677 13.1117 112.722 19.5339L112.722 19.5338ZM116.588 20.1858C117.959 20.1858 119.197 20.1603 120.568 20.1069V21.6419C120.57 21.8526 120.572 22.0919 120.573 22.3641C120.589 24.7768 120.617 29.8558 120.464 35.0655C120.312 40.275 120.573 46.7792 120.882 48.5007H116.951C116.948 39.0098 117.073 29.2754 116.588 20.1858ZM97.9025 31.5633C97.8479 38.9626 97.6562 43.8152 97.497 47.1214L93.0894 47.1614L89.6036 46.9901L85.1552 46.723L82.8168 46.4436L82.9735 48.3843L82.8168 52.2198C89.891 51.9218 94.9203 52.3194 102.553 52.1971C102.553 37.5482 102.221 19.6924 101.706 4.70763H105.605C106.348 18.7457 105.813 34.6846 104.954 48.8252C104.782 51.6424 104.625 52.2669 104.625 52.2669C104.625 52.2669 110.337 52.1031 110.337 52.2243C110.337 52.3456 110.386 51.6423 110.215 46.8327C109.654 31.0856 109.466 16.4086 109.917 0.644345L108.371 0.697985V0.644345L97.5382 0.706131C97.9994 10.9837 97.9785 21.275 97.9025 31.5633V31.5633ZM83.0125 20.1858C85.4246 19.9677 88.4996 19.8703 90.8538 20.1069V21.6419C90.8561 21.8526 90.8577 22.0919 90.8595 22.3641C90.8626 22.8536 90.8664 23.449 90.8692 24.1313C91.0856 27.8374 91.4878 37.1441 91.2948 40.7933L87.4161 40.6743L87.5007 38.2115L87.7093 23.2025L83.3028 23.1926C83.7928 30.7636 83.6087 36.5226 83.2758 43.5429L87.3174 43.664V43.6474L91.0835 43.745L91.0806 43.7886L93.2586 43.8611L93.3183 43.863L93.3198 43.8632L95.6551 43.9442L95.223 39.8809C95.1785 39.0209 95.1442 38.2403 95.1117 36.7001C95.0792 35.1598 94.6062 26.8654 94.6259 24.1312C94.4534 16.8555 94.4261 11.4695 94.5017 7.88818C94.5285 6.61351 94.5684 5.56737 94.6131 4.70746L95.0451 0.644123L92.7097 0.725082L92.7083 0.725193L92.6485 0.727132L90.4705 0.799779L90.638 3.27187L90.6569 3.27082L90.8397 6.72655H90.8396C90.9003 7.69496 90.9532 8.78892 90.9684 9.84937C90.9944 11.6697 90.9106 13.3909 90.8461 14.4939L90.8456 14.5032C90.8336 14.7074 90.8224 14.8901 90.8126 15.0482C90.7975 15.2933 90.7862 15.4789 90.7685 15.6195L90.7498 15.8941L90.7603 16.06C89.5069 16.06 88.2536 16.06 87.0002 16.06L86.8905 6.3769L86.9559 0.693995L82.6778 0.645453C82.9161 3.47286 83.2632 6.21581 83.2028 9.04848C83.1356 12.1968 83.3902 17.7333 83.0124 20.1857L83.0125 20.1858ZM68.2887 31.5633C68.2264 39.9996 67.9151 45.9145 67.7594 48.8719L67.7443 49.1597L67.4552 52.2536C69.5378 52.1177 71.2857 52.1416 72.9393 52.197V50.2677C72.9441 50.0138 72.9438 49.717 72.9393 49.3705V49.3693C72.9297 48.6389 72.9017 47.6864 72.8649 46.4435C72.607 37.7215 72.4145 28.9832 72.0629 20.2649L76.1124 20.1068V21.6419C76.1147 21.8525 76.1163 22.0918 76.1181 22.3641C76.1336 24.7767 76.1649 29.7576 76.0091 35.0654C75.8534 40.3732 75.5109 46.0078 75.3397 48.8251C75.1686 51.6423 75.0535 52.3154 75.1446 52.2242C75.2357 52.1331 80.7594 52.2243 80.7594 52.2243C80.7594 52.2243 80.772 51.6422 80.6009 46.8326C80.4296 42.023 80.0871 32.4038 79.9005 24.7923C79.6984 16.5598 79.437 8.79452 80.3037 0.644289C78.7787 0.697098 77.1147 0.706685 75.7291 0.660415C76.0415 5.27146 76.3777 9.82105 76.1048 14.494L76.1042 14.5034C76.0922 14.7076 76.0812 14.8903 76.0712 15.0484C76.0561 15.2934 76.0448 15.4791 76.0273 15.6197L76.0084 15.8942L76.019 16.0602H75.4481H75.4406H75.4331H75.4255H75.4178H75.4101H75.4022H75.3944H75.3864C74.3438 16.0602 73.3015 16.0602 72.259 16.0602L72.6086 0.755504V0.639746L67.9243 0.730512C68.387 11 68.3647 21.2829 68.2887 31.5634V31.5633ZM65.3394 31.5633C65.4018 39.9996 65.713 45.9145 65.8687 48.8719L65.8838 49.1597L66.0517 52.2292C64.2615 52.2292 62.4772 52.2036 60.6888 52.197V50.2677C60.684 50.0138 60.6843 49.717 60.6888 49.3705V49.3693C60.6984 48.6389 60.7264 47.6864 60.7632 46.4435C60.9188 41.1824 61.2302 30.7227 61.3858 25.4926C61.4163 24.4712 61.4405 23.6499 61.4554 22.9886L61.5652 20.2649L57.5157 20.1068V21.6419C57.5134 21.8525 57.5117 22.0918 57.51 22.3641C57.4945 24.7767 57.4633 29.7576 57.619 35.0654C57.7747 40.3732 58.4992 52.2928 58.4338 52.2316C58.2641 52.0728 52.8659 52.2809 52.8648 52.2574C52.8355 51.5584 52.9609 48.6954 53.0272 46.8326C53.1983 42.0229 53.5409 32.4037 53.7276 24.7922C53.9297 16.5597 54.1911 8.79447 53.3244 0.644234C57.4751 0.788142 61.5236 0.837017 65.7038 0.69394C65.2383 10.947 65.2637 21.2991 65.3394 31.5632L65.3394 31.5633ZM57.6297 16.0394H57.8565C57.9477 16.0601 58.0715 16.0601 58.2416 16.0601H60.2624V16.0602L60.732 16.0601H60.7607H60.7886H61.3691C61.3721 13.4393 61.4045 10.8208 61.448 8.19966C61.4702 6.84946 61.4926 6.06714 61.4748 5.50879L61.472 3.48998L57.7124 3.27099C57.4823 7.62303 57.3322 11.7184 57.6297 16.0394ZM35.1152 8.69949L39.7653 8.46864L41.0541 10.6333L42.1488 8.56594H46.4071L46.2104 0.711672C47.6354 0.972391 51.4176 0.672329 51.4176 0.672329L50.807 11.144L51.6695 52.295H46.4525L46.8425 40.548V25.9554L46.5082 12.603H43.1474L43.7295 52.179L38.4761 52.2516L39.1571 40.2561V25.6636L38.8299 12.7985L35.0271 13.0802L35.6063 52.2949H30.353L31.034 40.5479V25.9554L30.3535 0.705576C31.4086 0.705576 35.5273 0.705576 35.497 0.705576L35.1152 8.69938V8.69949ZM5.00086 12.7398C5.01449 12.745 5.00972 12.7466 5.00695 12.7466C5.00418 12.7466 5.0028 12.746 5.00086 12.7398ZM0.195146 1.14744C0.193982 1.14295 0.281646 1.13846 2.56739 1.06144C4.85324 0.984305 9.33722 0.834412 11.5815 0.758718C13.8259 0.682857 13.8304 0.681084 13.8327 0.680308C13.8351 0.679366 13.8351 0.679366 13.7728 1.39708C13.7105 2.11479 13.586 3.5501 13.4614 6.42084C13.3369 9.29158 13.2123 13.5976 13.15 15.7508C13.1158 16.9332 13.1006 17.4661 13.0368 17.7451L10.8221 19.2456L12.9656 20.1242C13.0349 20.7545 13.0814 22.0933 13.1811 24.9714C13.368 30.3541 13.7416 41.1194 13.9283 46.5645C13.9405 46.9189 13.9518 47.2502 13.9618 47.5609L14.1912 52.0957L12.739 52.1475C12.5002 52.1766 12.2193 52.1874 11.8893 52.1968C11.5256 52.2069 11.1025 52.2156 10.6386 52.2226C8.65414 52.2532 5.93463 52.2583 4.00115 52.2592L3.99483 52.2591L2.97041 52.2592C2.08629 52.2592 1.54629 52.2592 1.21913 52.2258L0.584091 52.2182L0.901775 49.9664C0.948267 49.3967 1.00085 48.6817 1.05582 47.7815C1.19591 45.4882 1.35162 41.9934 1.36719 38.9354C1.38243 35.9371 1.54856 33.2646 0.858553 30.6166L5.62863 30.8329C5.32802 31.5115 5.26773 32.3069 5.23481 32.9506C5.2168 33.5466 5.21647 33.2301 5.22733 35.3157C5.2383 37.4013 5.31832 42.4743 5.36769 45.2444L5.36886 45.2991L5.38304 46.0966C5.40149 47.1221 5.43158 48.1454 5.45408 49.1704L8.86055 49.0475L8.89873 47.5806C8.91098 47.4007 8.90555 47.6193 8.92517 46.8314C8.94489 46.0436 9.00978 43.4287 9.02535 38.7794C9.03909 34.6473 9.01615 28.8149 8.99997 25.1814L8.74142 20.7203L8.73011 20.4253L6.89538 20.6831L5.22184 21.1431L5.0515 16.9131C5.31339 16.9666 8.91635 17.3785 8.91635 17.3785C8.94739 16.9104 9.00978 15.6574 9.05644 14.4093C9.10304 13.1611 9.13429 11.6009 9.08813 9.88289C9.04214 8.1648 8.91907 6.28901 8.85667 5.35292C8.7945 4.41682 8.79312 4.42037 8.79256 4.4222C8.7919 4.42391 8.7919 4.42391 8.15359 4.43949C7.51545 4.45517 6.23901 4.48642 5.61633 4.50199C4.99376 4.51756 5.02502 4.51756 5.04059 4.51756C5.05616 4.51756 5.05616 4.51756 4.94716 5.36018C4.71736 7.13672 4.47233 11.104 5.0008 12.7401C4.96722 12.7269 4.71437 12.7034 4.07529 12.5833C3.4361 12.4633 1.81077 12.178 1.05189 12.0455C0.293117 11.913 -0.0226279 11.9331 0.00125516 11.8641C0.333845 10.8997 0.676631 6.7398 0.680455 6.25183C0.694087 4.45971 0.535051 2.81028 0.410482 1.98363C0.285968 1.15658 0.196088 1.1521 0.195091 1.14772L0.195146 1.14744ZM24.16 6.69264C24.2208 7.65173 24.2736 8.73528 24.2888 9.7857C24.315 11.5887 24.231 13.2934 24.1666 14.3859L24.166 14.3951C24.154 14.5974 24.1429 14.7784 24.133 14.935C24.1179 15.1776 24.1066 15.3616 24.089 15.5008L24.0602 15.9166H23.8333C23.7422 15.9371 23.6184 15.9371 23.4482 15.9371H21.4275V15.9372L20.9578 15.9371H20.9292H20.9013H20.3207L20.319 14.3873V14.3867V14.3805C20.3032 12.877 20.2725 9.9853 20.2418 8.15151C20.2195 6.81411 20.1973 6.03932 20.2151 5.48624L20.2179 3.4866L23.9774 3.26982L24.1601 6.6927H24.16V6.69264Z" fill="white"/>
</svg>
