<svg width="63" height="63" viewBox="0 0 63 63" fill="none" xmlns="http://www.w3.org/2000/svg">
<path fill-rule="evenodd" clip-rule="evenodd" d="M62.6698 22.6444V40.1379C62.5788 44.456 62.3653 48.3936 61.9055 50.6445C60.4922 57.5633 57.3398 60.5376 50.6445 61.9055C47.7004 62.507 43.6303 62.6699 40.1479 62.6699H22.522C18.2131 62.6699 11.3315 62.4191 7.71084 60.5895C3.32587 58.3737 1.73838 55.4118 0.764347 50.6445C0.16416 47.707 0 43.6211 0 40.1479V22.522C0 19.0488 0.16416 14.9628 0.764347 12.0253C1.73953 7.25238 3.32717 4.29553 7.71084 2.08035C11.3315 0.250779 18.2131 0 22.522 0H40.1479C43.7034 0 47.7275 0.170458 50.7462 0.785075C52.4461 1.13121 53.685 1.43778 55.0404 2.12139C57.8322 3.52952 59.1718 4.90612 60.6308 7.79201C61.2854 9.08668 61.6089 10.5647 61.9265 12.1268C62.5123 15.0082 62.6698 19.2151 62.6698 22.6444ZM30.4424 24.7633C32.062 24.5703 33.4923 25.075 34.684 26.0732C35.7858 26.9959 36.4657 28.1533 36.6553 29.7148C37.055 33.0068 34.5525 35.648 31.6878 35.9588C28.3858 36.3169 25.7635 33.8689 25.45 30.9956C25.2602 29.2557 25.9071 27.6906 26.7575 26.72C27.5294 25.8391 28.6783 24.9734 30.4424 24.7633ZM39.1933 42.8906C38.8852 42.98 38.5122 43.2774 38.2329 43.4317C32.8861 46.3868 26.5957 45.6813 21.8308 42.0702C21.5726 41.8745 21.227 41.6004 21.0372 41.3848C20.4135 40.676 20.1531 40.5459 19.3138 39.5346C18.3687 38.3956 17.6152 36.9545 17.0365 35.4045C15.3448 30.8729 16.1323 25.7441 18.814 21.857C19.4589 20.9224 20.025 20.3083 20.8263 19.5539C21.4842 18.9345 21.5377 18.8221 22.4045 18.2366C24.6848 16.6963 26.6518 15.8084 29.6255 15.5176C36.7718 14.819 42.1568 19.2259 44.3298 23.5793C45.7371 26.3985 46.3768 29.6839 45.702 33.1478C44.9907 36.7995 41.9363 36.4261 40.9829 34.9963C39.9991 33.521 41.0804 30.1534 40.0533 27.3611C39.5974 26.1217 38.7913 24.6331 37.8864 23.7968C37.7315 23.6537 37.6569 23.5856 37.5154 23.4284C36.8885 22.7315 35.3525 21.8653 34.4418 21.5091C31.4384 20.3342 28.0128 20.8379 25.4712 22.7203C25.3473 22.8121 25.1537 22.9343 25.0423 23.0316C24.2997 23.6803 24.3946 23.6833 23.9616 24.1095C23.4953 24.5686 23.1417 25.1224 22.7702 25.7511C21.1792 28.4438 21.2325 32.0613 22.6815 34.8124C23.055 35.5216 23.9856 36.8 24.5486 37.2567C24.8134 37.4716 24.9952 37.6656 25.3268 37.8973C26.0795 38.4233 26.1335 38.5058 27.0894 38.9679C27.6691 39.2482 28.5176 39.5311 29.235 39.6639C31.0436 39.9989 32.6265 39.8499 34.2647 39.2796C35.2553 38.9347 36.223 38.3771 36.9869 37.7492L37.7627 37.0775L38.3321 37.7701C38.7839 38.3551 39.6474 38.9482 40.3338 39.2824C41.4279 39.8151 42.9677 40.0332 44.2604 39.7207C46.8094 39.1042 48.2896 37.5318 49.147 35.1824C49.995 32.8586 49.9317 29.2011 49.4509 26.7191C48.9531 24.1493 47.9111 21.8834 46.7069 20.028C46.0444 19.0074 45.388 18.2851 44.5885 17.4023C44.0576 16.816 42.7882 15.6754 42.0986 15.2098C40.012 13.8013 38.2934 12.8357 35.6922 12.1829C28.9953 10.5021 21.8066 12.6702 17.4597 17.484L16.3633 18.7279C16.1827 18.955 16.0183 19.1535 15.8538 19.3894C14.5861 21.2073 13.4849 23.2556 12.8644 25.8259C11.5434 31.2979 12.5827 36.3677 15.5497 40.8946C16.0251 41.6197 16.1534 41.6902 16.583 42.265L17.1193 42.9024C17.3709 43.1575 17.4789 43.264 17.6935 43.4954C19.8275 45.7964 23.3615 47.8375 26.7019 48.6012C30.8318 49.5454 34.803 49.1755 38.6572 47.4924C39.188 47.2605 41.0357 46.303 41.5175 45.9157C41.6042 45.8462 41.5961 45.8485 41.6423 45.7963L41.0321 45.0527C40.7524 44.7617 39.3122 43.1351 39.1933 42.8905L39.1933 42.8906Z" fill="#333333"/>
</svg>
