<svg width="19" height="19" viewBox="0 0 19 19" fill="none" xmlns="http://www.w3.org/2000/svg">
<path fill-rule="evenodd" clip-rule="evenodd" d="M2.00837 7.68211C2.00837 6.77224 2.23214 6.01586 2.50584 5.35935C2.73331 4.81195 3.33804 3.92612 3.83181 3.53222C4.04633 3.36023 3.99455 3.34728 4.41989 3.04399C5.19846 2.49105 6.00662 2.2081 6.96272 2.062C7.10142 2.04166 7.16985 2.04906 7.31409 2.04166C7.7154 2.02317 7.36033 1.97323 7.95026 2.03611C8.29794 2.0731 8.39225 2.02686 8.91006 2.15262C9.7774 2.36344 10.6022 2.7407 11.2735 3.314C11.721 3.69681 11.6341 3.66907 11.9799 4.01674C12.0983 4.1351 12.1908 4.2738 12.2925 4.41065L12.8066 5.30572C13.8515 7.4232 13.2245 10.1029 11.721 11.6045C10.5301 12.7955 9.22445 13.3207 7.50088 13.3207C7.09957 13.3207 6.62614 13.2449 6.29696 13.1506C5.61086 12.9545 4.95805 12.7049 4.38846 12.2758C2.95338 11.1958 2.00837 9.59431 2.00837 7.68026V7.68211ZM17.4688 19H17.2746C17.0157 18.9723 16.7272 18.8354 16.4313 18.5284C16.3518 18.4471 16.3499 18.4249 16.2815 18.3435L13.4631 15.4105C13.2338 15.1626 12.9287 14.9093 12.6845 14.6319C12.5015 14.4248 12.2906 14.1455 12.0632 13.992L10.101 14.9611C9.7848 15.0757 9.25404 15.1941 8.90821 15.2533C7.76533 15.4474 6.98861 15.3698 5.89936 15.1441C5.48141 15.0572 4.88593 14.8575 4.51606 14.6707C4.07592 14.4488 3.7301 14.2805 3.32509 14.005L2.79434 13.6074C2.69447 13.5223 2.65379 13.4576 2.54468 13.3743C2.2081 13.1136 2.05645 12.8732 1.84563 12.6624L1.23535 11.8634C1.17247 11.758 1.12994 11.6859 1.06891 11.5842C0.941308 11.3752 0.85254 11.2032 0.741581 10.9832C0.105412 9.71637 0 8.74547 0 7.27156C0 6.30991 0.355071 5.14668 0.754526 4.35332C0.998637 3.87064 1.08186 3.66537 1.44248 3.18454C1.86042 2.6279 1.79015 2.76844 2.06755 2.43741C2.15262 2.3357 2.16371 2.28947 2.27467 2.19885C2.92379 1.66255 2.98667 1.50905 3.8614 1.00234C4.04263 0.896924 4.26455 0.79891 4.45318 0.704594C5.52579 0.16644 6.56142 0 7.90403 0C9.24664 0 10.5523 0.460483 11.6267 1.1022C11.7784 1.19282 11.8967 1.25939 12.0336 1.36295C12.3646 1.61261 12.4922 1.68844 12.7918 1.97693C12.8787 2.06015 12.9102 2.06755 12.9971 2.14337C13.1783 2.30241 13.2578 2.44296 13.4798 2.66118C13.7738 2.95153 14.3637 3.88544 14.5598 4.29044L14.7798 4.77497C14.8538 4.9451 14.9 5.08565 14.9592 5.26319C15.3587 6.45601 15.4215 7.60629 15.2496 8.86568C15.2015 9.2152 15.0905 9.66644 14.987 9.97528C14.68 10.887 14.545 11.0941 14.103 11.8376C13.9273 12.1316 13.7257 12.3461 13.5445 12.6143C13.7627 12.7604 14.0068 13.0969 14.1659 13.2541L15.8876 15.0202C16.1835 15.3901 17.5409 16.6957 17.7425 16.9491C18.177 17.4946 18.3305 17.3966 18.3305 18.1049C18.3305 18.4637 17.9736 18.9408 17.4632 18.9963L17.4688 19Z" fill="white"/>
</svg>
