<svg width="194" height="24" viewBox="0 0 194 24" fill="none" xmlns="http://www.w3.org/2000/svg">
<path d="M8.85488 10.68L5.25488 18.432L0.526878 6.6H2.97488L5.47088 13.296L8.85488 6.24L12.3349 13.32L14.9509 6.6H17.2789L12.4309 18.432L8.85488 10.68Z" fill="white"/>
<path d="M26.5736 10.68L22.9736 18.432L18.2456 6.6H20.6936L23.1896 13.296L26.5736 6.24L30.0536 13.32L32.6696 6.6H34.9976L30.1496 18.432L26.5736 10.68Z" fill="white"/>
<path d="M44.2924 10.68L40.6924 18.432L35.9644 6.6H38.4124L40.9084 13.296L44.2924 6.24L47.7724 13.32L50.3884 6.6H52.7164L47.8684 18.432L44.2924 10.68Z" fill="white"/>
<path d="M57.4031 16.584C57.4031 17 57.2511 17.352 56.9471 17.64C56.6591 17.928 56.3071 18.072 55.8911 18.072C55.4751 18.072 55.1231 17.928 54.8351 17.64C54.5471 17.352 54.4031 17 54.4031 16.584C54.4031 16.168 54.5471 15.816 54.8351 15.528C55.1231 15.224 55.4751 15.072 55.8911 15.072C56.3071 15.072 56.6591 15.216 56.9471 15.504C57.2511 15.792 57.4031 16.152 57.4031 16.584Z" fill="white"/>
<path d="M63.2018 8.592V17.856H60.8738V8.592H59.0738V6.6H60.8738V3.384H63.2018V6.6H66.0578V8.592H63.2018Z" fill="white"/>
<path d="M78.2751 10.584V17.856H75.9471V10.896C75.9471 9.152 75.1471 8.28 73.5471 8.28C72.6671 8.28 71.9311 8.576 71.3391 9.168C70.7311 9.776 70.4271 10.472 70.4271 11.256V17.856H68.0991V0H70.4271V8.04H70.4511C70.8511 7.512 71.3711 7.088 72.0111 6.768C72.6671 6.448 73.3551 6.288 74.0751 6.288C75.4191 6.288 76.4511 6.664 77.1711 7.416C77.9071 8.152 78.2751 9.208 78.2751 10.584Z" fill="white"/>
<path d="M92.1178 12.624H82.7098C82.7898 13.68 83.1578 14.552 83.8138 15.24C84.5018 15.928 85.3818 16.272 86.4538 16.272C88.0218 16.272 89.3258 15.632 90.3658 14.352L91.6618 15.648C91.1498 16.352 90.4138 16.944 89.4538 17.424C88.5098 17.904 87.4778 18.144 86.3578 18.144C84.6938 18.144 83.3018 17.584 82.1818 16.464C81.0458 15.328 80.4778 13.912 80.4778 12.216C80.4778 10.488 81.0378 9.072 82.1578 7.968C83.2778 6.848 84.7258 6.288 86.5018 6.288C88.1658 6.288 89.5018 6.888 90.5098 8.088C91.5338 9.272 92.0698 10.784 92.1178 12.624ZM82.8298 10.968H89.8138C89.7178 10.184 89.3498 9.52 88.7098 8.976C88.0698 8.432 87.3018 8.16 86.4058 8.16C85.4298 8.16 84.6218 8.448 83.9818 9.024C83.3418 9.568 82.9578 10.216 82.8298 10.968Z" fill="white"/>
<path d="M94.3468 20.784L95.7388 19.344C96.8108 20.688 98.0028 21.36 99.3148 21.36C100.547 21.36 101.467 20.984 102.075 20.232C102.699 19.48 103.011 18.424 103.011 17.064V15.936C102.627 16.528 102.099 17.008 101.427 17.376C100.755 17.728 100.011 17.904 99.1948 17.904C97.5788 17.904 96.2428 17.344 95.1868 16.224C94.1308 15.104 93.6028 13.696 93.6028 12C93.6028 10.4 94.1308 9.056 95.1868 7.968C96.2428 6.88 97.5868 6.336 99.2188 6.336C100.851 6.336 102.115 7 103.011 8.328V6.6H105.339V17.064C105.339 19.08 104.835 20.608 103.827 21.648C102.835 22.688 101.379 23.208 99.4588 23.208C97.3948 23.208 95.6908 22.4 94.3468 20.784ZM103.059 12.096C103.059 10.976 102.739 10.048 102.099 9.312C101.475 8.56 100.627 8.184 99.5548 8.184C98.5308 8.184 97.6668 8.536 96.9628 9.24C96.2588 9.944 95.9068 10.896 95.9068 12.096C95.9068 13.296 96.2588 14.264 96.9628 15C97.6668 15.704 98.5388 16.056 99.5788 16.056C100.603 16.056 101.443 15.68 102.099 14.928C102.739 14.192 103.059 13.248 103.059 12.096Z" fill="white"/>
<path d="M108.34 13.896V6.6H110.668V13.56C110.668 15.304 111.468 16.176 113.068 16.176C113.948 16.176 114.684 15.88 115.276 15.288C115.884 14.68 116.188 13.984 116.188 13.2V6.6H118.516V17.856H116.188V16.44H116.164C115.3 17.592 114.092 18.168 112.54 18.168C111.212 18.168 110.18 17.8 109.444 17.064C108.708 16.312 108.34 15.256 108.34 13.896Z" fill="white"/>
<path d="M126.67 14.76C126.67 14.344 126.518 14.008 126.214 13.752C125.91 13.496 125.414 13.248 124.726 13.008L123.694 12.648C122.83 12.36 122.182 11.984 121.75 11.52C121.334 11.04 121.126 10.392 121.126 9.576C121.126 8.632 121.494 7.848 122.23 7.224C122.966 6.6 123.886 6.288 124.99 6.288C126.366 6.288 127.518 6.68 128.446 7.464L127.51 9C126.726 8.344 125.918 8.016 125.086 8.016C124.542 8.016 124.094 8.144 123.742 8.4C123.406 8.656 123.238 9.008 123.238 9.456C123.238 10.16 123.894 10.728 125.206 11.16C125.734 11.32 126.158 11.472 126.478 11.616C126.814 11.744 127.19 11.944 127.606 12.216C128.022 12.488 128.334 12.824 128.542 13.224C128.75 13.624 128.854 14.096 128.854 14.64C128.854 15.696 128.446 16.552 127.63 17.208C126.814 17.832 125.814 18.144 124.63 18.144C122.982 18.144 121.638 17.68 120.598 16.752L121.654 15.24C122.582 16.024 123.574 16.416 124.63 16.416C125.206 16.416 125.686 16.264 126.07 15.96C126.47 15.64 126.67 15.24 126.67 14.76Z" fill="white"/>
<path d="M136.186 14.76C136.186 14.344 136.034 14.008 135.73 13.752C135.426 13.496 134.93 13.248 134.242 13.008L133.21 12.648C132.346 12.36 131.698 11.984 131.266 11.52C130.85 11.04 130.642 10.392 130.642 9.576C130.642 8.632 131.01 7.848 131.746 7.224C132.482 6.6 133.402 6.288 134.506 6.288C135.882 6.288 137.034 6.68 137.962 7.464L137.026 9C136.242 8.344 135.434 8.016 134.602 8.016C134.058 8.016 133.61 8.144 133.258 8.4C132.922 8.656 132.754 9.008 132.754 9.456C132.754 10.16 133.41 10.728 134.722 11.16C135.25 11.32 135.674 11.472 135.994 11.616C136.33 11.744 136.706 11.944 137.122 12.216C137.538 12.488 137.85 12.824 138.058 13.224C138.266 13.624 138.37 14.096 138.37 14.64C138.37 15.696 137.962 16.552 137.146 17.208C136.33 17.832 135.33 18.144 134.146 18.144C132.498 18.144 131.154 17.68 130.114 16.752L131.17 15.24C132.098 16.024 133.09 16.416 134.146 16.416C134.722 16.416 135.202 16.264 135.586 15.96C135.986 15.64 136.186 15.24 136.186 14.76Z" fill="white"/>
<path d="M142.99 6.6V17.856H140.662V6.6H142.99ZM140.542 3C140.542 2.6 140.67 2.272 140.926 2.016C141.182 1.744 141.51 1.608 141.91 1.608C142.31 1.608 142.646 1.744 142.918 2.016C143.19 2.272 143.326 2.6 143.326 3C143.326 3.384 143.19 3.712 142.918 3.984C142.646 4.24 142.31 4.368 141.91 4.368C141.51 4.368 141.182 4.24 140.926 3.984C140.67 3.712 140.542 3.384 140.542 3Z" fill="white"/>
<path d="M148.739 16.584C148.739 17 148.587 17.352 148.283 17.64C147.995 17.928 147.643 18.072 147.227 18.072C146.811 18.072 146.459 17.928 146.171 17.64C145.883 17.352 145.739 17 145.739 16.584C145.739 16.168 145.883 15.816 146.171 15.528C146.459 15.224 146.811 15.072 147.227 15.072C147.643 15.072 147.995 15.216 148.283 15.504C148.587 15.792 148.739 16.152 148.739 16.584Z" fill="white"/>
<path d="M160.687 7.992L159.559 9.456C158.647 8.592 157.623 8.16 156.487 8.16C155.415 8.16 154.519 8.536 153.799 9.288C153.095 10.04 152.743 11.024 152.743 12.24C152.743 13.456 153.103 14.432 153.823 15.168C154.543 15.904 155.439 16.272 156.511 16.272C157.711 16.272 158.775 15.808 159.703 14.88L160.903 16.344C159.703 17.544 158.207 18.144 156.415 18.144C154.751 18.144 153.327 17.592 152.143 16.488C150.991 15.352 150.415 13.936 150.415 12.24C150.415 10.544 150.991 9.128 152.143 7.992C153.311 6.856 154.727 6.288 156.391 6.288C158.119 6.288 159.551 6.856 160.687 7.992Z" fill="white"/>
<path d="M164.368 12.216C164.368 13.416 164.712 14.392 165.4 15.144C166.088 15.896 166.968 16.272 168.04 16.272C169.112 16.272 169.992 15.896 170.68 15.144C171.384 14.392 171.736 13.416 171.736 12.216C171.736 11.016 171.384 10.04 170.68 9.288C169.976 8.536 169.096 8.16 168.04 8.16C166.984 8.16 166.104 8.536 165.4 9.288C164.712 10.024 164.368 11 164.368 12.216ZM174.064 12.24C174.064 13.936 173.488 15.352 172.336 16.488C171.216 17.608 169.784 18.168 168.04 18.168C166.312 18.168 164.88 17.616 163.744 16.512C162.608 15.376 162.04 13.952 162.04 12.24C162.04 10.528 162.608 9.104 163.744 7.968C164.864 6.848 166.296 6.288 168.04 6.288C169.784 6.288 171.216 6.848 172.336 7.968C173.488 9.104 174.064 10.528 174.064 12.24Z" fill="white"/>
<path d="M193.469 10.608V17.856H191.141V10.824C191.141 9.128 190.397 8.28 188.909 8.28C188.093 8.28 187.413 8.576 186.869 9.168C186.325 9.728 186.053 10.448 186.053 11.328V17.856H183.725V10.968C183.725 9.176 182.997 8.28 181.541 8.28C180.709 8.28 180.021 8.6 179.477 9.24C178.933 9.848 178.661 10.584 178.661 11.448V17.856H176.333V6.6H178.661V8.04H178.709C179.077 7.496 179.573 7.072 180.197 6.768C180.837 6.448 181.501 6.288 182.189 6.288C183.021 6.288 183.749 6.48 184.373 6.864C184.997 7.232 185.437 7.752 185.693 8.424C186.573 7.016 187.853 6.312 189.533 6.312C190.765 6.312 191.725 6.688 192.413 7.44C193.117 8.192 193.469 9.248 193.469 10.608Z" fill="white"/>
</svg>
