<svg width="63" height="64" viewBox="0 0 63 64" fill="none" xmlns="http://www.w3.org/2000/svg">
<path fill-rule="evenodd" clip-rule="evenodd" d="M35.6884 32.0469C36.8864 32.1175 37.3479 31.3871 37.9292 30.8038C41.5469 27.1747 43.4152 21.0926 44.5007 20.3597C45.1148 19.945 49.9082 19.901 50.8645 20.1042C52.8568 20.5277 50.8739 23.6605 50.3642 24.6296C49.6078 26.0676 48.679 27.4846 47.8212 28.8236C44.8432 33.4721 44.2508 32.8257 46.2674 35.1027C46.816 35.7221 47.3067 36.2486 47.9151 36.7605L50.3123 39.5059C51.107 40.4835 54.0844 44.0261 51.7475 44.7441C50.919 44.9987 46.0064 44.9584 45.302 44.6349C43.9189 43.9996 41.5641 40.2858 38.2589 38.0927C37.697 37.7199 36.4461 37.0213 35.6518 37.586C35.0327 38.026 35.2572 39.6473 35.2573 40.4881C35.2577 43.2718 35.9091 44.6472 32.8849 44.8246C30.7949 44.9471 28.9369 44.5643 27.1643 43.9246C23.8132 42.7153 21.4933 40.601 19.3356 38.1667C18.3833 37.0923 17.3428 35.516 16.4794 34.1669C15.5996 32.792 14.8341 31.4792 13.9831 29.9345C13.229 28.5655 9.32262 20.9059 11.6195 20.1567C12.4509 19.8856 17.443 19.9114 18.0928 20.3136C19.2845 21.0511 20.7761 28.7895 25.3881 33.3392C27.8949 35.812 27.421 31.4941 27.421 29.8392C27.421 28.044 27.6584 25.0371 26.9925 23.5387C26.4487 22.3149 23.8329 20.0264 27.5393 20.0447C34.6359 20.0799 35.2657 19.1264 35.2582 22.4949L35.2573 29.2272C35.2571 30.5115 35.0757 31.0181 35.6883 32.0471L35.6884 32.0469ZM62.6699 23.1069V40.6004C62.5789 44.9185 62.3654 48.8562 61.9056 51.107C60.4922 58.0258 57.3399 61 50.6446 62.368C47.7005 62.9695 43.6304 63.1324 40.1479 63.1324H22.522C18.2131 63.1324 11.3315 62.8816 7.71083 61.052C3.32589 58.8361 1.73834 55.8742 0.764358 51.107C0.164215 48.1695 0 44.0836 0 40.6103V22.9844C0 19.5112 0.164119 15.4252 0.764358 12.4878C1.73959 7.71479 3.32723 4.75796 7.71083 2.54278C11.3314 0.713228 18.213 0.462402 22.522 0.462402H40.1479C43.7035 0.462402 47.7276 0.632845 50.7462 1.24745C52.4462 1.59361 53.6851 1.9002 55.0405 2.58379C57.8323 3.99188 59.1719 5.36855 60.6309 8.25439C61.2854 9.54904 61.609 11.0271 61.9266 12.5891C62.5123 15.4707 62.6699 19.6775 62.6699 23.1068V23.1069Z" fill="#333333"/>
</svg>
